<svg xmlns="http://www.w3.org/2000/svg" version="1.1" viewBox="-5.0 -10.0 110.0 135.0">
 <path d="m81.316 12.496c-6.9688-1.5078-21.879 3.7461-31.703 21.508-1.043 1.8828-1.1133 4.1602-0.25781 6.1367l4.1406 9.5703c0.25391 0.67578 0.80469 1.3828 0.13281 1.7578-0.76172 0.42188-1.6875-1.0195-2.0547-1.8086l-4.6523-10.008s-7.6641-21.105-24.641-18.121c-13.516 2.375-22.707 14.137-13.672 29.684s37.414 39.23 48.758 36.289 16.457-24.863 16.457-34.316c0-6.9844-1.5273-16.562-2.3281-21.094-0.066406-0.38281 0.46094-0.55469 0.62891-0.20312 3.0703 6.3398 11.973 23.012 19.484 20.109 9.2461-3.5703-2.5195-37.816-10.293-39.5zm-65.242 30.09c-0.84766 0-1.5352-0.6875-1.5352-1.5352 0-0.84766 0.6875-1.5352 1.5352-1.5352 0.84766 0 1.5352 0.6875 1.5352 1.5352 0 0.84766-0.6875 1.5352-1.5352 1.5352zm7.1172 8.2812c-0.66797 0-1.2109-0.54297-1.2109-1.2109s0.54297-1.2109 1.2109-1.2109c0.66797 0 1.2109 0.54297 1.2109 1.2109s-0.54297 1.2109-1.2109 1.2109zm4.1406-15.758c-1.2227 0-2.2109-0.98828-2.2109-2.2109 0-1.2227 0.98828-2.2109 2.2109-2.2109 1.2227 0 2.2109 0.98828 2.2109 2.2109 0 1.2227-0.98828 2.2109-2.2109 2.2109zm0.73828 8.2656c-0.57031 0-1.0352-0.46484-1.0352-1.0352 0-0.57031 0.46484-1.0352 1.0352-1.0352 0.57031 0 1.0352 0.46484 1.0352 1.0352 0 0.57031-0.46484 1.0352-1.0352 1.0352zm8.875 8.8711c-0.57031 0-1.0352-0.46484-1.0352-1.0352 0-0.57031 0.46484-1.0352 1.0352-1.0352 0.57031 0 1.0352 0.46484 1.0352 1.0352 0 0.57031-0.46484 1.0352-1.0352 1.0352z"/>
</svg>