<svg xmlns="http://www.w3.org/2000/svg" version="1.1" viewBox="-5.0 -10.0 110.0 135.0">
 <path d="m53.254 23.352c-9.9531 0-15.797 6.7695-19.34 8.582-0.66797 0.34375-2.5469 0.75391-4.7969 1.2227s-4.9336 1.0625-7.5742 2.1016c-5.2852 2.0781-10.488 6.1914-11.145 14.266-0.25781 3.1914 0.48437 5.6445 2.043 7.6094 1.5586 1.9609 3.7852 3.457 6.5352 5.3125 0.69531 0.46875 1.0312 1.2344 1.457 2.5039 0.42578 1.2695 0.90625 2.9336 2.1094 4.5781 2.4023 3.293 7.4648 6.1484 19.676 6.9961 9.793 0.67969 15.996-1.5117 20.273-4.1836 4.2773-2.6719 6.7422-5.6875 8.6875-6.5625 2.207-0.99219 6.8438-1.9531 10.906-4.1094s7.707-5.8594 7.5586-11.973c-0.11719-4.8164-3.1289-8.207-6.6016-10.441-3.4727-2.2305-7.4922-3.4727-10.137-4.2734-2.207-0.67188-4.4727-3.375-7.4102-6.1367-2.9336-2.7617-6.7305-5.4922-12.242-5.4922zm0 2.5c4.707 0 7.7695 2.2109 10.531 4.8125 2.7617 2.6016 5.0312 5.6836 8.3945 6.707 2.6211 0.79688 6.4258 2.0078 9.5078 3.9883s5.3633 4.5703 5.4531 8.4023c0.125 5.1484-2.6094 7.7812-6.2305 9.7031s-7.9883 2.7891-10.758 4.0352c-2.9531 1.3281-5.0938 4.293-8.9844 6.7188-3.8906 2.4297-9.4219 4.457-18.781 3.8086-11.875-0.82031-15.996-3.4609-17.824-5.9688-0.91406-1.2539-1.3086-2.5625-1.7578-3.9023-0.44922-1.3398-0.99609-2.8164-2.4258-3.7812-2.7422-1.8516-4.7695-3.2812-5.9766-4.7969-1.2031-1.5156-1.7305-3.1016-1.5078-5.8477 0.57812-7.1172 4.7578-10.25 9.5664-12.141 2.4062-0.94531 4.9453-1.5195 7.168-1.9805s4.0586-0.74609 5.4258-1.4453c4.5898-2.3555 9.375-8.3086 18.199-8.3086zm-4.3281 12.895c-4.3086 0-8.4414 1.1836-11.488 3.293-3.0469 2.1094-4.7617 4.9727-4.7617 7.957s1.7148 5.8438 4.7617 7.9531 7.1797 3.2969 11.488 3.2969c4.3125 0 8.4453-1.1875 11.492-3.2969s4.7578-4.9688 4.7578-7.9531-1.7109-5.8477-4.7578-7.957c-3.0469-2.1094-7.1797-3.293-11.492-3.293zm-2.0156 1.8008c1.9141-0.027344 3.1602 0.29297 3.1602 0.29297-12.148 1.4336-12.242 9.3594-13.297 8.707-3.1016-1.918-0.12891-5.5703 2.9727-7.1953 2.668-1.3984 5.25-1.7773 7.1641-1.8047z"/>
</svg>