<svg xmlns="http://www.w3.org/2000/svg" version="1.1" viewBox="-5.0 -10.0 110.0 135.0">
 <path d="m52.754 25.895c-1.1758-0.066406-2.3516 0.085938-3.4688 0.45312l-22.59 7.4414c-1.8828 0.62109-3.1562 2.3711-3.1641 4.3516l-0.054688 13.297-0.007812 1.8242c-0.003906 1.2812 0.76172 2.4375 1.9414 2.9297l19.547 8.1484c1.6211 0.67578 3.4453 0.66406 5.0586-0.03125l24.34-10.484c1.2734-0.55078 2.1016-1.8047 2.1094-3.1914l0.011718-2.7734 0.050782-12.469c0.007812-1.3438-0.85938-2.5312-2.1406-2.9375l-19.332-6.1328c-0.74609-0.23828-1.5195-0.37891-2.3008-0.42187zm19.848 8.4062c0.50391 0.015625 0.94922 0.33594 1.1289 0.80859 0.24219 0.64844-0.085938 1.3672-0.73438 1.6094-11.426 4.2656-18.477 7.4297-23.309 8.6367-0.71094 0.17578-1.3008 0.87891-1.3086 1.6094l-0.16016 14.543c-0.007812 0.69141-0.57422 1.2422-1.2656 1.2383-0.69141-0.007813-1.2422-0.57422-1.2344-1.2656l0.16016-14.492c0.007813-0.73047-0.55859-1.4766-1.2617-1.6797-6.1133-1.7695-11.012-4.1836-17.078-6.5625-0.64453-0.25391-0.96094-0.97656-0.70703-1.6211 0.25391-0.64453 0.97656-0.96094 1.6211-0.70703 5.6758 2.2266 10.043 4.043 15.719 6.2695 1.8086 0.71094 3.8125 0.72656 5.6328 0.042969 7.5625-2.832 14.758-5.5117 22.316-8.3477 0.15234-0.058593 0.31641-0.082031 0.48047-0.078124zm6.8398 14.57-0.011718 2.8086c-0.007813 1.6055-0.92188 3.0547-2.3359 3.6914l-26.926 12.133c-1.7852 0.80469-3.8047 0.81641-5.5977 0.035156l-21.629-9.4258c-1.3086-0.57031-2.1562-1.9062-2.1484-3.3906l0.007812-1.9492-8.5938 4.2773c-2.9766 1.4844-2.8711 5.7656 0.17188 7.1016l29.969 13.125c3.3086 1.4492 7.0781 1.4141 10.355-0.097656l34.09-15.699c4.543-2.0938 4.207-8.6562-0.52734-10.277z"/>
</svg>