<svg xmlns="http://www.w3.org/2000/svg" version="1.1" viewBox="-5.0 -10.0 110.0 135.0">
 <path d="m50.012 9.8633c-2.4961 0.035157-3.6445 1.9219-4.4492 3.8242-1.5352-0.015625-2.6133 1.9414-2.2109 3.2461-1.918 0.84766-2.1914 3.1172-1.625 4.5352-1.7188 1.2266-1.6367 3.2266-1.2539 4.4609-1.4688 1.5156-1.0586 3.6133-0.84766 4.7188-1.6445 1.168-1.168 3.7539-0.77344 4.9062-1.7461 1.582-1.2227 4.4141-0.10937 5.0898-0.83594 0.26562-1.0625 0.9375-1.2891 1.6133 3.4609 2.7617 7.3008 5.5781 12.559 18.609 3.3086-10.895 9.0469-15.809 12.559-18.613-0.22266-0.67578-0.45312-1.3477-1.2891-1.6133 1.1133-0.67578 1.6367-3.5078-0.10938-5.0898 0.39453-1.1523 0.87109-3.7383-0.77344-4.9062 0.21094-1.1055 0.62109-3.2031-0.84766-4.7188 0.38281-1.2344 0.46484-3.2344-1.2539-4.4609 0.56641-1.418 0.29688-3.6875-1.625-4.5352 0.40234-1.3047-0.67578-3.2617-2.2109-3.2461-0.80469-1.8984-1.9531-3.7852-4.4492-3.8203zm-20.223 30.73c-0.45703 0-0.73437 0.10156-0.77734 0.26562-0.27344 1.0938 7.4609 2.3438 5.9727 22.637-0.73438 10 4.8438 19.23 11.023 20.684 0.24609 1.7227 0.36328 3.5078 0.95703 5.1406 0.49609 1.3633 5.9336 0.77344 6.3008-0.039062 0.12109-0.26172 1.1328-5.2695 1.1328-5.2695 6.6562-1.3281 11.734-11.293 10.793-25.074-1.043-15.227 6.6211-16.789 5.7344-18.039s-14.977 2.8672-20.422 23.816c-3.9297 15.125-1.5273 18.555-2.6914 18.617-1.7344 0.09375-1.1133-10.227 1.5469-19.984 0 0-2.582-7.5938-7.8906-14.969-4.3125-5.9922-9.6992-7.7969-11.684-7.7852z"/>
</svg>