<svg xmlns="http://www.w3.org/2000/svg" version="1.1" viewBox="-5.0 -10.0 110.0 135.0">
 <path d="m67.457 9.9258c-9.832 0.39453-17.73 5.8086-15.984 18.285 2.543-5.75 10.453-10.121 14.637-11.355-4.6836 2.9414-11.695 7.9883-13.898 13.309 5.1055-1.1641 9.1992-0.22656 15.449-3.7578 3.875-2.1914 8.2109-7.3359 10.285-15.152-3.6445-1.0078-7.2109-1.457-10.488-1.3281zm-24.043 6.5273c-1.0781 0.050781-2.6211 1.5078-2.3359 2.3555 0.48828 1.4609 5.7617 4.0391 6.6797 14.352 0 0-10.246-4.9883-18.145-2.3438-6.6172 2.2109-14.34 8.8086-14.027 24.141 0.3125 15.328 12.504 34.66 22.836 34.723 6.1367 0.039062 6.9141-2.2656 11.781-2.2969 3.0273-0.019531 8.125 2.6875 10.426 2.7109 10.746 0.10547 24.301-19.508 23.781-36.809-0.50781-16.758-10.645-22.172-17.832-22.418-7.043-0.23828-12.406 2.3203-16.469 2.4688-0.41016-5.168-1.9844-14.949-6.2656-16.812-0.12891-0.054688-0.27344-0.078126-0.42578-0.070313zm-0.71484 19.535c9.0703 2.7656 10.957 0.44922 15.449 0.44141-6.1914 4.5859-13.727 1.5117-15.449-0.44141z"/>
</svg>