<svg xmlns="http://www.w3.org/2000/svg" data-name="Layer 1" viewBox="0 0 100 125" x="0px" y="0px">
<path d="M50,24.32c5.35,0,10.69,1.76,15.03,4.95l.55,.4,.22-.64c.46-1.33,1.03-2.71,1.69-4.09l.18-.39-.35-.24c-5.13-3.51-11.12-5.37-17.32-5.37-4.56,0-8.96,.98-13.08,2.92l-.29,.13v6.12l.75-.43c3.83-2.21,8.2-3.38,12.62-3.38Z"/>
<path d="M21.22,40.18c-.95,3.06-1.47,6.4-1.47,9.51,0,5.58,1.5,10.88,4.33,15.56v-22.72c-1.12-.58-2.09-1.39-2.85-2.35Z"/>
<path d="M35.13,34.79v-14.02c0-1.04-.91-1.88-2.03-1.88-.75,0-1.41,.39-1.76,1.04l-.12,.22v11.47c0,.28-.22,.5-.5,.5s-.5-.22-.5-.5v-11.04l-.08-.26c-.2-.71-.86-1.43-1.92-1.43-.88,0-1.64,.55-1.89,1.37l-.04,11.36c0,.28-.22,.5-.5,.5s-.5-.22-.5-.5v-11.06l-.04-.29c-.25-.82-1.01-1.37-1.89-1.37-1.12,0-2.03,.84-2.03,1.88v14.02c0,2.79,1.78,5.32,4.43,6.3,.2,.07,.33,.26,.33,.47v37.86c0,1.18,.96,2.15,2.15,2.15s2.15-.96,2.15-2.15V41.55c0-.21,.13-.4,.33-.47,2.65-.98,4.43-3.51,4.43-6.3Z"/>
<path d="M50,75.07c-6.45,0-12.59-2.42-17.29-6.81l-.84-.79v7.04l.21,.15c5.26,3.78,11.46,5.78,17.92,5.78s12.75-2.03,18.03-5.86l.21-.15v-7.07l-.84,.8c-4.71,4.45-10.89,6.9-17.39,6.9Z"/>
<path d="M73.37,19c-.26-.12-.62-.12-.88,0-.19,.09-.34,.23-.44,.4-.02,.03-.03,.05-.04,.08l-2.46,4.67c-5.33,10.13-5.31,19.79,.06,25.84,.08,.09,.13,.21,.13,.33v29.09c0,1.18,.96,2.15,2.15,2.15s2.15-.96,2.15-2.15V19.98c0-.1-.02-.21-.05-.3-.09-.27-.35-.56-.61-.68Z"/>
<path d="M76.03,34.31v30.85c2.7-4.68,4.23-10.14,4.23-15.47s-1.49-10.75-4.23-15.38Z"/>
<path d="M50,26.82c-4.64,0-9.07,1.38-12.87,3.98v3.99c0,3.27-1.88,6.26-4.76,7.74v21.72c4.37,5.28,10.77,8.31,17.63,8.31s13.36-3.07,17.73-8.44v-13.25c-4.02-4.85-5.12-11.56-3.32-18.93-4.07-3.31-9.16-5.14-14.42-5.14Z"/>
</svg>
