<svg xmlns="http://www.w3.org/2000/svg" version="1.1" viewBox="-5.0 -10.0 110.0 135.0">
 <path d="m35 12.676v3.8594c0 0.44531-0.13672 0.88281-0.38672 1.25l-9.1094 13.199c-0.32812 0.47656-0.50391 1.0391-0.50391 1.6211v48.637c0 1.4336 1.0273 2.6641 2.4414 2.9219l30.07 5.4727c1.3594 0.24609 3.4297-0.12109 4.6211-0.82031 3.5742-2.1055 7.1484-4.2227 10.723-6.3359 1.1875-0.70312 2.1484-2.3867 2.1484-3.7656l-0.003906-46.781c0-0.96484-0.29297-1.9062-0.83984-2.6992l-6.1641-8.9336c-0.32422-0.46875-0.49609-1.0234-0.49609-1.5938v-3.4258c0-1.4609-1.125-2.6797-2.582-2.7969l-27.336-2.1914c-0.66406-0.050781-1.3242 0.17578-1.8125 0.62891-0.49219 0.45312-0.76953 1.0898-0.76953 1.7578zm3.0898 3.957 26.539 2.7578h0.003906c0.21094 0.019531 0.36719 0.19922 0.36719 0.41016v0.16016c0 0.26172 0.078125 0.51562 0.22656 0.73047l0.73047 1.0625h0.003907c0.44922 0.65234 0.47266 1.5078 0.058593 2.1836l-4.707 7.6562c-0.11328 0.1875-0.097656 0.42188 0.039062 0.59375 0.14063 0.16797 0.37109 0.23047 0.57422 0.15234l7.8203-2.9336c0.69922-0.26172 1.4844-0.015625 1.9062 0.59766l0.023437 0.035156v0.003907c0.17578 0.25 0.22266 0.56641 0.13281 0.85547-0.09375 0.28906-0.3125 0.52344-0.59766 0.62891l-10.219 3.832c-0.59766 0.22266-0.99219 0.79688-0.99219 1.4336v29.461c2.8047-5.5117 6.3281-5.5195 7.5547-3.7891 2.5078 3.5469-4.3477 3.0742-2.0625 5.5312 1.9141 2.0547 4.2305 1.7031 7.0078-1.0977v11.43c0 0.89844-0.47656 1.7305-1.25 2.1914l-10.34 6.1133c-0.18359 0.10938-0.41797 0.11328-0.60547 0.003907-0.1875-0.10547-0.30469-0.30859-0.30469-0.52344v-19.859c-0.046875 0.089844-0.089844 0.17969-0.13672 0.26953-0.57812 1.1797-1.4492 2.0859-2.3633 2.7031v16.887c0 0.24219-0.10938 0.47266-0.29297 0.625-0.1875 0.15625-0.42969 0.22266-0.66797 0.17969l-27.586-5.0195c-0.83984-0.15625-1.4531-0.88672-1.4531-1.7422v-9.6055c1.5391 1.1953 4.1055 2.668 5.25 0.32031 0.88281-1.8047-0.47266-3.0352-2.0234-3.2461-2.1719-0.29297-2.8711-1.8047-1.957-3.2422 0.87109-1.3672 2.4727-0.8125 3.6328 1.4766 0.55859 1.1055 1.8672 1.5508 2.707 0.95703 2.0234-1.4258 1.2305-2.7656-0.26562-3.1094-2.6289-0.60938-3.3516-3.168-2.0195-4.1875 1.6836-1.2891 4.3203-1.0781 6.9297 8.5508 1.6445 6.0703 8.2969 2.5977 8.0938-1.082-0.26562-4.8008 2.4414-8.1641 4.418-8.0547 0.45703 0.027344 0.87109 0.23828 1.2031 0.65625 2.043 2.5859-4.8672 3.5391-3.6133 8.1836 0.33594 1.2461 2.4961-0.66797 3.8203-3 1.3594-2.3867 2.875-2.7266 3.8203-2.3477l0.050781-25.312 0.003906 0.003907c0-0.82422-0.60938-1.5234-1.4258-1.6328l-26.598-3.6484v-0.003907c-0.30469-0.039062-0.57031-0.23828-0.69531-0.52344-0.12109-0.28125-0.09375-0.60938 0.082031-0.86328 0.50391-0.71484 1.3672-1.0859 2.2305-0.96484l24.926 3.2461c0.80469 0.10547 1.5938-0.26562 2.0273-0.94922l5.5781-8.832v-0.003906c0.14453-0.22656 0.16016-0.51562 0.042969-0.75781-0.12109-0.24609-0.35547-0.41016-0.625-0.4375l-25.879-2.6875-0.003906-0.003906c-0.085938-0.007813-0.16016-0.0625-0.19531-0.14063-0.035156-0.078124-0.027344-0.16797 0.019531-0.23828l0.22656-0.32812c0.15625-0.22656 0.23828-0.49219 0.23828-0.76562v-0.41406c0-0.15234 0.0625-0.29688 0.17578-0.39844 0.11328-0.10156 0.26562-0.15234 0.41406-0.13672zm19.41 52.594v-3.8125c-1.7305 1.1094-4.9805 1.6445-4.0312 4.2031 0.35156 0.94531 2.2734 0.79687 4.0312-0.39063zm12.09-12.746c0.48047 0 0.86328 0.24609 0.95312 0.69922 0.5 2.4766-2.2422 0.96484-3.3359 3.1797-0.17969-2.7109 1.3281-3.8828 2.3828-3.8789z"/>
</svg>