<svg xmlns="http://www.w3.org/2000/svg" version="1.1" viewBox="-5.0 -10.0 110.0 135.0">
 <path d="m84.887 24.055c-0.77734-0.011719-1.4688 0.30469-1.4688 0.30469l-19.5 4.6914s-2.2422 0.36719-3.2812-0.41797c-0.94922-0.71094-1.293-1.5078-5.5234-1.0156-0.75391-0.76172-1.668-1.3047-2.6875-1.3047-1.6602 0-2.9609 0.91797-3.4609 1.332-1.3242 0.085938-2.4688 0.37109-3.3906 0.98438h-0.003907l-3.3203 0.34375c-0.41016 0.042969-0.71094 0.41016-0.67188 0.82422 0.042969 0.41016 0.41016 0.71094 0.82422 0.67188l1.6719-0.17188c-0.14062 0.25-0.26953 0.51953-0.38672 0.80469l-1.418 0.13281c-0.41797 0.039063-0.72656 0.41016-0.6875 0.83203 0.039063 0.42188 0.41016 0.73047 0.83203 0.6875l0.77344-0.074218c-0.070312 0.29297-0.14062 0.59766-0.20312 0.92187l-0.71484 0.070313c-0.41797 0.039063-0.72656 0.41016-0.6875 0.83203 0.039063 0.41797 0.41016 0.72656 0.82812 0.6875l0.32031-0.03125c-0.035157 0.24609-0.066407 0.50391-0.09375 0.76562l-0.37109 0.035157c-0.41797 0.039062-0.72656 0.41016-0.6875 0.82812 0.039063 0.41797 0.41016 0.72656 0.82812 0.6875l0.0625-0.007812c-0.003906 0.050781-0.007812 0.10156-0.011719 0.15234-0.33203 3.6914-0.51172 5.7969-0.90234 7.125-0.39063 1.3281-0.92188 1.9297-2.2734 2.9648-2.8789 2.1992-2.7852 1.8711-3.2227 2.0469-4.3477 0.70703-7.1836 3.0547-8.9102 5.418-0.14063 0.19141-0.27344 0.38672-0.40234 0.58203-0.95312 0.09375-2.6719 0.007813-5.4219 2.8438-7.2578 1.6211-11.324 3.8086-11.324 6.0898 0 2.293 4.1172 4.4961 11.469 6.1328 3.9102 3.3984 15.051 5.2383 28.531 5.1172 13.48 0.12109 24.621-1.7188 28.531-5.1172 7.3516-1.6367 11.469-3.8398 11.469-6.1328 0-2.3477-4.3086-4.5938-11.953-6.2383-1.0781-1.9648-3.4023-3.8906-7.8789-4.6289-0.26562-0.042969-0.52734-0.082031-0.78906-0.11328l0.26562-0.23828s-3.4688-3.918-8.2031-3.9883c-0.69531-0.44922-3.9453-2.7461-4.3633-6.5781-0.26953-2.4609-0.27344-4.8203-0.21484-6.8242 2.3164-0.25391 3.6523-0.59375 4.1719-1.7188 0.55859-1.2031 1.0039-1.8945 3.0156-2.3438 2.5117-0.5625 20.359-3.9609 20.359-3.9609s2.9062-0.58203 2.4531-2.3438c-0.33594-1.3086-1.1992-1.6484-1.9727-1.6602zm-32.465 3.7617c0.12109 0 0.25391 0.023438 0.40234 0.074219l-1.5742 0.16016c0.35938-0.13672 0.75781-0.23438 1.1719-0.23438zm2.1016 1.4062c0.19141 0.25391 0.36328 0.52734 0.50391 0.8125l-1.7227 0.16016c-0.14453-0.27344-0.30859-0.54297-0.5-0.79687zm-3.6328 0.375c0.042969 0.03125 0.082031 0.058594 0.125 0.09375 0.23438 0.18359 0.44141 0.41016 0.625 0.66406l-1.4336 0.13281h-0.003906c-0.49219-0.23047-1.0859-0.27344-1.7852-0.18359-0.41406 0.054687-0.76953 0.21875-1.082 0.45312l-1.9023 0.17578c0.035156-0.058594 0.070312-0.11719 0.10547-0.17188 0.17188-0.26562 0.35547-0.48828 0.55859-0.67969zm4.6055 1.9297c0.007812 0.085937 0.011718 0.17578 0.011718 0.25781 0 0.20312-0.003906 0.42969-0.011718 0.67969-0.089844-0.027344-0.1875-0.035156-0.28125-0.023438l-1.1055 0.10547c-0.054687-0.26562-0.125-0.55859-0.21484-0.86719zm-3.125 0.29297c0.10156 0.30078 0.17969 0.59766 0.23828 0.86719l-1.1641 0.10938c-0.011718-0.26562-0.042968-0.53125-0.10156-0.79688-0.007812-0.027344-0.011719-0.054688-0.019531-0.082031zm-2.5781 0.24219c0.03125 0.0625 0.058593 0.14844 0.085937 0.26172 0.035156 0.16406 0.050782 0.375 0.050782 0.61719l-2.4805 0.23438c0.039062-0.09375 0.078125-0.1875 0.11719-0.27344 0.13281-0.28125 0.26562-0.50391 0.39844-0.67188zm-3.6445 0.33984c-0.12891 0.29297-0.24609 0.60547-0.34375 0.93359l-1.2422 0.11719c0.074219-0.33203 0.15234-0.64062 0.23438-0.92188zm9.293 1.543c-0.011718 0.25-0.023437 0.51563-0.03125 0.78516-0.0625-0.011719-0.125-0.011719-0.1875-0.007813l-0.94922 0.089844c0.003906-0.32812 0.007812-0.58594 0.011718-0.75781l1.082-0.10156c0.027343-0.003906 0.050781-0.007813 0.078124-0.011719zm-2.6602 0.25781c-0.003906 0.1875-0.007812 0.44531-0.011719 0.75781l-1.3555 0.12891c0-0.082032-0.003906-0.16016-0.007812-0.23438-0.007812-0.16016-0.003906-0.33594 0.003906-0.51953zm-2.8789 0.27344c0 0.14453 0 0.29297 0.007812 0.4375 0.003906 0.09375 0.003906 0.19922 0.003906 0.31641l-3.0781 0.29297c0.046874-0.26172 0.097656-0.51953 0.15234-0.76953zm-4.4805 0.42578c-0.046875 0.25391-0.089844 0.50781-0.13281 0.76562l-1.1211 0.10547c0.035156-0.26563 0.070312-0.51953 0.10938-0.76563zm9.9375 1.3438c-0.050781 1.9961-0.039063 4.3672 0.23438 6.832 0.34766 3.1875 2.2773 5.418 3.6914 6.6562-0.17188 0.042969-0.33984 0.085937-0.51562 0.14062-0.32422 0.097656-0.63281 0.19922-0.92578 0.29688-0.32422-0.23438-0.95312-0.71484-1.5938-1.3594-0.92578-0.93359-1.8086-2.1953-1.8984-3.3633-0.10547-1.4102-0.125-4.2422-0.11719-6.7344 0.003906-0.85547 0.011719-1.6602 0.019531-2.3594zm-2.6094 0.24219c-0.007812 0.67578-0.011719 1.4336-0.015625 2.2148-0.007813 2.5039 0.007813 5.3125 0.125 6.8516 0.13281 1.7812 1.2773 3.25 2.3242 4.3086 0.35547 0.35938 0.70703 0.67188 1.0156 0.92578-0.44922 0.1875-0.85547 0.37109-1.2227 0.54688-0.30469-0.19531-0.74219-0.48047-1.1289-0.73828l-0.65234-0.58984s0.027344-0.023437 0.03125-0.03125v-0.007812h-0.003906l-0.003906 0.003906c-0.003906 0-0.007812 0.003906-0.011719 0.007813-0.019531 0.011719-0.10156 0.039062-0.14453 0.058593-1.082-0.97656-2.1602-2.4219-2.2539-4.4297-0.10938-2.2656 0.054687-4.4766 0.23438-6.3555 0.097656-0.98438 0.19922-1.8672 0.27344-2.6328zm-2.9531 0.28125c-0.066406 0.67969-0.15234 1.4766-0.23438 2.3438-0.1875 1.9023-0.35547 4.1875-0.24219 6.5664 0.09375 1.9609 0.96484 3.3633 1.9375 4.5-0.31641 0-0.38281 0.074218-0.8125 0.03125-0.41016-0.042969-0.90234-0.34766-1.3984-0.92969-0.5-0.58203-0.97656-1.4102-1.3789-2.3125-0.79688-1.8086-1.2734-3.9648-1.2734-4.9336 0-0.98047 0.015625-2.9727 0.23047-4.9609zm-4.6992 0.44922c-0.19531 1.9844-0.20312 3.8711-0.20312 4.8164 0 0.64844 0.1875 3.5195-1.4375 5.4102-1.1914 1.3867-2.1797 2.0625-2.375 2.1875-0.53516-0.042968-1.0938-0.070312-1.6797-0.089843-0.027344 0-0.054688 0-0.082032-0.003907 0.27344-0.1875 0.56641-0.40234 0.88281-0.64062 1.4492-1.1055 2.3242-2.125 2.7969-3.7305s0.62891-3.7344 0.95703-7.418c0.011719-0.14453 0.027344-0.28906 0.042969-0.42969zm0.74609 9.2383c0.13672 0.375 0.28516 0.74609 0.44922 1.1133 0.22266 0.5 0.46484 0.98828 0.73438 1.4453-0.0625 0.097656-0.13281 0.20312-0.21094 0.30469-0.3125 0.42578-0.75391 0.78516-0.95312 0.82422-0.3125 0.0625-0.69141 0.070313-1.043 0.054688-0.51562-0.125-1.0664-0.23438-1.6523-0.32422 0.42188-0.37891 0.91016-0.86328 1.4219-1.4531 0.57031-0.66016 0.97266-1.3516 1.2539-1.9648zm2.1094 3.8555c0.63281 0.72266 1.3984 1.2891 2.3281 1.3906 1.1367 0.12109 1.7734 0.007813 2.3789-0.10547 0.26953 0.19531 0.54297 0.38672 0.80469 0.55469-0.10547 0.0625-0.21094 0.12109-0.30859 0.17969-0.55859 0.33203-0.97266 0.59375-1.293 0.73828-0.32031 0.14453-0.51172 0.1875-0.76953 0.16406-0.17969-0.015625-0.35547-0.0625-0.52344-0.12109-0.45312-0.41797-0.95312-0.8125-1.5234-1.1797-0.023437-0.015625-0.046875-0.03125-0.074219-0.046875h-0.003906c-0.49609-0.3125-1.0391-0.60156-1.6523-0.86328 0.25-0.21875 0.45312-0.47266 0.63281-0.70703zm13.23 0.68359c2.7695-0.035156 5.1328 1.5469 6.3867 2.5938-0.33203-0.003906-0.65234 0-0.96875 0.011718-0.69531 0.03125-1.3516 0.10547-1.9688 0.21875-0.23828-0.25391-0.67578-0.63672-1.3047-0.90234-0.51172-0.21484-1.1562-0.35547-1.9336-0.34766-0.77734 0.007813-1.6953 0.16406-2.7383 0.5625-2.5664 0.96875-4.2266 2.1328-5.0938 2.8477-0.10938 0.089843-0.20703 0.17188-0.29297 0.25-0.066406-0.085938-0.13281-0.17188-0.20312-0.25781-0.34766-0.44531-0.69531-0.89844-1.0742-1.3516 0.17187-0.050782 0.33984-0.11328 0.5-0.1875 0.46094-0.21094 0.89844-0.49219 1.4375-0.8125 1.0781-0.64453 2.582-1.4844 5.2812-2.3125 0.67187-0.20703 1.332-0.30078 1.9727-0.30859zm-21.828 0.042968c1.5547 0.046876 2.8828 0.17578 4.0234 0.375 0.50391 0.085938 0.97266 0.1875 1.4102 0.30078 1.3203 0.33984 2.3477 0.78516 3.1953 1.3008 0.66406 0.40625 1.2188 0.85156 1.7109 1.3281 0.023438 0.023438 0.050782 0.046875 0.074219 0.074219 0.48828 0.47656 0.92188 0.99219 1.3438 1.5312 0.64844 0.82031 1.2773 1.6836 2.0469 2.5195 0.55078 0.59766 1.1719 1.1836 1.9258 1.7227 1.418 1.0195 3.8672 1.6641 6.9062 2.2344 3.0391 0.56641 6.625 0.99219 10.102 1.2969 0.83203 0.074219 1.6562 0.14062 2.4688 0.19922l-0.13672-0.15625 0.14062 0.15625c0.39062 0.027344 0.77734 0.054687 1.1562 0.082031 2.1367 0.14453 4.1289 0.23828 5.7969 0.28906 1.2891 0.039062 2.3828 0.054687 3.2031 0.042969 0.085938 0 0.17188-0.003907 0.25-0.003907-0.14453 0.56641-0.80859 1.125-1.9766 1.6562-12.312 0.26172-19.707-0.58203-24.246-1.793-4.5859-1.2227-6.2188-2.7422-7.3047-4-0.47266-0.54687-0.90625-1.1445-1.375-1.7539-0.60937-0.79297-1.2773-1.6094-2.1523-2.3594-0.050781-0.042969-0.097657-0.082031-0.14844-0.125-1.5391-1.2734-3.707-2.2812-7.1367-2.6523-0.45703-0.050782-0.90234-0.070313-1.3281-0.0625-2.9844 0.058593-5.1836 1.4414-6.6094 2.8789-0.25 0.25-0.47656 0.50781-0.68359 0.75391-0.86328 1.0391-1.3711 2.0078-1.5664 2.4258-0.019531 0.042969-0.035156 0.078125-0.050781 0.10938-0.64062 0.070313-1.2656 0.14453-1.875 0.21875-0.79297 0.17188-1.5547 0.38672-2.2773 0.625 0.035156-0.10547 0.070312-0.21484 0.10937-0.32812 0.23438-0.67578 0.58984-1.543 1.1094-2.4688 0.25781-0.46094 0.55859-0.9375 0.90625-1.4102 1.9219-2.6289 5.1719-5.1875 10.984-5.0117zm22.043 3.0156c0.58203-0.007813 1.0195 0.10547 1.3516 0.24609-1.4297 0.48047-2.6172 1.1562-3.5703 1.875-0.011719 0.007813-0.023438 0.015625-0.03125 0.023438-1.0547 0.80078-1.8359 1.6602-2.3672 2.3516-0.18359 0.23828-0.33594 0.45312-0.46094 0.64062-0.13281-0.074218-0.25391-0.14844-0.35547-0.21875-0.20703-0.14844-0.40234-0.30469-0.58984-0.46484-0.42188-0.35937-0.79688-0.73828-1.1523-1.1328 0.30859-0.28516 0.89062-0.77344 1.8125-1.332 0.78906-0.48047 1.8281-1.0117 3.1523-1.5078 0.90625-0.34375 1.6328-0.46875 2.2188-0.47656zm-21.93 0.6875c0.32031 0 0.65625 0.015624 1.0039 0.054687 2.0273 0.21875 3.4961 0.64844 4.6367 1.2109 0.72656 0.35938 1.3164 0.76953 1.832 1.2109 0.44531 0.38281 0.83594 0.79688 1.2031 1.2305 0.72656 0.85938 1.3672 1.8008 2.1641 2.7266 1.1992 1.3945 3.2422 3.1875 8.0508 4.4688 4.0508 1.0781 10.098 1.8477 19.453 1.8906-2.918 0.61719-10.789 1.3203-10.789 1.3203s-3.9375 0.007812-11.992-1.8984c-3.8672-0.91406-5.4609-2.7812-6.9023-4.7734-0.91797-1.2695-1.7695-2.6367-3.0312-3.6875-0.71875-0.59766-1.5664-1.0898-2.6367-1.4062-1.3203-0.39062-2.4805-0.44531-3.4648-0.30469s-1.793 0.48047-2.4219 0.87891c-0.67969 0.43359-1.1641 0.9375-1.4648 1.3125-0.070313 0.089844-0.13281 0.16797-0.18359 0.24219-0.070312-0.007812-0.14453-0.011719-0.21484-0.019531-0.52734-0.039063-1.0508-0.058594-1.5586-0.0625-0.32812 0.027343-0.65234 0.058593-0.97266 0.089843 0.015624-0.023437 0.027343-0.046874 0.042968-0.074218 0.32812-0.55078 0.83203-1.2734 1.5352-1.9805 0.17969-0.18359 0.37109-0.36328 0.57813-0.53516 1.2188-1.0391 2.8789-1.8984 5.1328-1.8984zm27.945 0.33984c0.78125 0.007813 1.6172 0.078125 2.5117 0.22656 3.1523 0.51953 4.957 1.5664 6.0078 2.7227 0.53516 0.58984 0.875 1.207 1.0977 1.7969 0.09375 0.24609 0.16406 0.48828 0.21875 0.72266 0.19531 0.83594 0.17578 1.5742 0.125 2.0469-0.55078-0.03125-1.1172-0.066406-1.6914-0.10547-1.0586-8.3281-13.219-6.668-14.922-1.8516-1.1719-0.26172-2.2109-0.55078-3.0508-0.84766 0.23047-0.32812 0.55078-0.73438 0.96875-1.1719 0.375-0.39453 0.82812-0.81641 1.3672-1.2227 0.49609-0.375 1.0586-0.74219 1.7031-1.0664 1.4609-0.74219 3.3203-1.2734 5.6641-1.25zm-41.629 2.3438c-0.054687 0.11328-0.10938 0.22266-0.16016 0.33203-0.46094 0.97656-0.75391 1.8359-0.92578 2.4375-0.09375 0.33203-0.15625 0.58203-0.1875 0.73047-1.0078 0.42969-1.9336 0.91016-2.7656 1.3984 0.64062-3.2227 1.8242-3.6406 4.0391-4.8984zm42.742 0.64062c2.1523-0.019531 4.2422 0.79688 5.1875 3.0742-2.5352-2.0664-6.5352-1.7188-8.0469 0.3125l0.03125 0.042969h-0.003907c-1.1992-0.16797-2.3516-0.35156-3.4258-0.55078-0.007812 0-0.015625-0.003906-0.023437-0.003906 0.65234-1.4531 3.5195-2.8555 6.2852-2.8789zm-28.582 0.14062c0.60547 0 1.2969 0.09375 2.0938 0.32812 0.058594 0.015625 0.11328 0.035156 0.16797 0.050782 2.2852 0.74219 3.25 2.457 4.7109 4.4805 1.4961 2.0742 3.5273 4.3555 7.7695 5.3594 2.0117 0.47656 3.7773 0.83203 5.3008 1.1016-2.2773 0.10938-4.6172 0.18359-6.9844 0.21484v-0.003907c-0.019531-0.011719-0.042968-0.019531-0.066406-0.03125 0 0-2.5859-1.0391-4.1797-1.793-1.4102-0.66797-3.0391-2.3711-3.0391-2.375l-0.003906 0.003907c-0.011719-0.015625-0.027344-0.03125-0.042969-0.046875-0.042969-0.066406-0.089844-0.13281-0.13281-0.20312-1.6094-2.4258-4.3828-4.957-8.8516-5.8281 0.18359-0.17188 0.41406-0.35938 0.6875-0.53516 0.066406-0.042969 0.13281-0.082032 0.20312-0.12109 0.58984-0.33594 1.3555-0.60547 2.3633-0.60938zm-8.3125 2.4883c0.94922-0.070312 1.9414-0.074218 2.9688 0.003907 5.1914 0.38672 8.0391 2.9414 9.6875 5.4297 0.90234 1.3594 1.418 2.6797 1.7031 3.5977-0.83203-0.015624-1.6602-0.035156-2.4844-0.0625-0.85547-1.7422-3.9375-6.9766-9.9805-6.7773-5.8242 0.19141-10.129 3.4961-11.441 4.6289-1.3711-0.29297-2.5625-0.60547-3.5586-0.9375 1.8164-1.7109 6.4531-5.4023 13.102-5.8867zm47.211 0.20313c2.5 0.58984 4.293 1.2461 5.2812 1.9414-0.70703 0-1.5742-0.015625-2.5586-0.046875-0.82031-0.027344-1.7266-0.0625-2.6875-0.10938 0.042969-0.46484 0.058594-1.0859-0.035156-1.7852zm-58.344 0.16406c-0.29297 1.1602-0.41016 2.0859-0.4375 2.3555-1.4766 1.0391-2.5156 2.0117-3.0664 2.5703-1.3242-0.60938-1.9961-1.2461-1.9961-1.8867 0-1.0781 1.9062-2.1328 5.4922-3.043zm49.418 0.3125c0.91797-0.050781 1.9062 0.23828 2.8438 0.89453-0.17578-0.015625-0.35156-0.03125-0.53125-0.042969-1.2852-0.11328-2.582-0.24219-3.8594-0.39062 0.47266-0.27734 1-0.42969 1.5469-0.46094zm-36.336 3.0117c2.3242-0.078125 4.1445 0.80859 5.5078 1.9453l-10.434-0.95703c1.4453-0.53516 3.1055-0.92969 4.9219-0.99219zm-7.5859 2.2344c0.11719-0.066406 14.699 1.3633 14.699 1.3594 0.46484 0.58594 0.82422 1.1562 1.0938 1.625-6.8477-0.26953-13.039-0.86328-17.762-1.707 0.51953-0.38281 1.1836-0.83203 1.9688-1.2773zm21.273 2.1797c0.27344 0.17188 0.5625 0.33594 0.85156 0.47266 0.33203 0.15625 0.69922 0.32422 1.0742 0.48828-0.54297-0.003907-1.0898-0.003907-1.6328-0.011719-0.074219-0.27344-0.17188-0.59375-0.29688-0.94922z"/>
</svg>