<svg xmlns="http://www.w3.org/2000/svg" xmlns:xlink="http://www.w3.org/1999/xlink" version="1.1" x="0px" y="0px" viewBox="0 0 3872.983 4841.22875" style="enable-background:new 0 0 3872.983 3872.983;" xml:space="preserve">
<g>
<g>
<path d="M1673.218,2475.032l-738.052,738.052c-19.978,19.978-33.514,43.97-40.096,70.002c-6.527,25.802-5.991,53.243,2.1,80.373    c9.566,32.083,10.552,66.369,2.717,98.646c-7.379,30.414-22.76,59.212-46.342,82.794c-35.187,35.187-81.315,52.783-127.442,52.783    c-46.128,0-92.257-17.597-127.442-52.783c-21.442-21.442-36.341-46.815-44.695-73.675c-8.412-27.047-10.344-55.609-5.804-83.24    c1.616-6.206,1.937-12.851,0.705-19.572c-4.515-24.63-28.144-40.937-52.775-36.423l0.027,0.142    c-28.638,5.249-58.38,3.501-86.487-5.241c-26.862-8.357-52.235-23.256-73.675-44.695c-35.187-35.185-52.784-81.314-52.784-127.442    c0-46.128,17.597-92.256,52.784-127.442c23.546-23.546,52.333-38.901,82.747-46.273c32.298-7.83,66.61-6.841,98.704,2.707    c27.136,8.077,54.569,8.602,80.346,2.077c26.028-6.591,50.008-20.123,69.975-40.089l738.097-738.097    c33.227,53.799,72.431,103.894,117.963,149.426l0.002,0.002l0.002,0.005C1569.326,2402.598,1619.421,2441.802,1673.218,2475.032z"/>
<path d="M1456.532,2113.802c-0.335-0.689-0.69-1.377-1.062-2.052c-103.218-197.118-126.735-443.201-87.159-693.518    c53.614-339.091,222.708-684.759,466.699-928.75v-0.002c16.115-16.118,32.971-32.014,50.157-47.438    c-4.976,92.401,21.749,204.645,76.084,327.455c90.626,204.845,258.663,443.531,482.62,667.488    c223.958,223.958,462.643,391.994,667.488,482.623c123.169,54.493,235.708,81.207,328.265,76.033    c-15.41,16.735-31.519,33.478-48.248,50.206l-0.002,0.002c-243.993,243.993-589.656,413.083-928.75,466.697    c-250.296,39.572-496.36,16.064-693.471-87.134c-0.698-0.386-1.406-0.752-2.12-1.097    c-65.749-34.674-126.017-78.256-179.124-131.364l-0.002-0.005l-0.002-0.002C1534.792,2239.83,1491.209,2179.558,1456.532,2113.802    z"/>
<path d="M3059.925,820.935c-216.126-216.124-444.825-377.559-639.859-463.848c-182.417-80.701-330.465-95.406-400.897-24.974    c-70.43,70.432-55.729,218.482,24.974,400.895c86.291,195.034,247.724,423.735,463.848,639.859    c216.123,216.125,444.825,377.559,639.859,463.847c182.416,80.704,330.463,95.407,400.895,24.974    c70.433-70.432,55.729-218.48-24.974-400.896C3437.482,1265.76,3276.048,1037.057,3059.925,820.935L3059.925,820.935z     M2507.036,549.646c133.282,78.653,295.916,207.497,456.296,367.877c160.383,160.383,289.226,323.019,367.879,456.299    c87.808,148.8,113.519,269.441,56.314,326.645c-57.207,57.204-177.848,31.496-326.647-56.312    c-133.282-78.651-295.916-207.494-456.299-367.879c-160.38-160.381-289.221-323.017-367.874-456.296    c-87.808-148.8-113.519-269.441-56.314-326.645S2358.238,461.838,2507.036,549.646z"/>
<path style="" d="M2244.508,557.452c-24.155,24.155,4.415,105.115,70.128,216.475    c74.875,126.878,198.814,282.985,354.06,438.231c155.251,155.25,311.355,279.192,438.233,354.062    c111.36,65.715,192.321,94.283,216.478,70.129c24.155-24.155-4.416-105.115-70.131-216.475    c-74.873-126.876-198.813-282.983-354.062-438.234c-155.246-155.246-311.351-279.185-438.231-354.058    C2349.625,561.866,2268.663,533.297,2244.508,557.452L2244.508,557.452z M2637.975,949.682    c36.138-36.138,131.075,0.205,212.037,81.163c80.96,80.962,117.302,175.9,81.165,212.037l-1.238,1.237    c-36.14,36.141-131.073-0.202-212.035-81.163c-80.965-80.962-117.306-175.897-81.166-212.037L2637.975,949.682z" fill-rule="evenodd" clip-rule="evenodd"/>
</g>
</g>
</svg>