<svg xmlns="http://www.w3.org/2000/svg" version="1.1" viewBox="-5.0 -10.0 110.0 135.0">
 <path d="m42.508 25.082c-0.92187 0.015625-1.8164 0.12891-2.6758 0.33203-3.4414 0.81641-6.3789 3.0938-8.4453 6.6758-2.25 3.8984-4.4766 5.9375-6.582 7.8125-2.1055 1.875-4.0781 3.5742-6 6.9102-3.8555 6.6758-3.3828 12.184-1.332 16.461 2.0469 4.2773 5.7344 7.3125 8.3047 8.7969 2.5703 1.4844 7.043 3.1562 11.77 2.793s9.7344-2.7031 13.586-9.3828c1.9258-3.3359 2.4258-5.918 3.0039-8.6914 0.57812-2.7695 1.2344-5.7188 3.4531-9.5703 2.1367-3.707 2.6445-7.3828 1.6133-10.738s-3.6172-6.4219-7.7852-8.8281c-3.125-1.8047-6.1445-2.6211-8.9102-2.5703zm-3.418 9.2695c0.23047-0.007812 0.42969 0.14844 0.47656 0.375 0 0 0.3125 1.5 1.9023 2.418s3.043 0.43359 3.043 0.43359c0.25-0.082031 0.51172 0.054687 0.59375 0.30469 0.078125 0.25-0.054688 0.51563-0.30469 0.59375 0 0-1.8711 0.60156-3.8086-0.51562-1.9375-1.1172-2.3516-3.043-2.3516-3.043-0.054687-0.25391 0.10938-0.50781 0.36328-0.55859 0.027344-0.003906 0.054688-0.007813 0.082032-0.011719zm21.566 5.1328c0.089844 2.6797-0.66016 5.4688-2.2461 8.2148-2.1562 3.7383-2.7734 6.5273-3.3477 9.2891-0.57812 2.7617-1.1133 5.5117-3.1094 8.9688-2.3984 4.1562-5.2969 6.7383-8.3125 8.2188 2.0664 0.83594 4.0938 0.74219 7.5508 0.74219 3.8516 0 6.3398-0.85938 9.0273-1.7422 2.6875-0.88672 5.5664-1.793 10.012-1.793 4.2773 0 7.7148-1.4023 10.109-3.9727 2.3906-2.5703 3.75-6.3438 3.75-11.16 0-4.8086-1.4258-8.582-3.8516-11.156s-5.8672-3.9766-10.004-3.9766c-4.2344 0-7.0312-0.80469-9.5781-1.6367zm4.0547 6.7695c0.125 0.007813 0.24219 0.0625 0.32422 0.15625 0.17578 0.19531 0.15625 0.49219-0.035156 0.66797 0 0-1.1445 1.0195-1.1445 2.8555 0 1.832 1.1445 2.8516 1.1445 2.8516 0.19531 0.17578 0.21094 0.47266 0.035156 0.66797-0.17578 0.19531-0.47266 0.21094-0.66797 0.035156 0 0-1.457-1.3203-1.457-3.5547 0-2.2383 1.457-3.5586 1.457-3.5586 0.09375-0.085938 0.21484-0.12891 0.33984-0.12109zm-19.52 0.12109c0.23047-0.007812 0.42969 0.14844 0.47656 0.375 0 0 0.3125 1.5 1.9023 2.418 1.5898 0.91797 3.043 0.43359 3.043 0.43359 0.25-0.082031 0.51172 0.054688 0.59375 0.30469s-0.054687 0.51562-0.30469 0.59375c0 0-1.8711 0.60156-3.8086-0.51562s-2.3516-3.043-2.3516-3.043c-0.054688-0.25391 0.10937-0.50781 0.36328-0.55859 0.027343-0.003906 0.054687-0.007812 0.082031-0.011718zm-11.02 0.94141c0.23047-0.007812 0.42969 0.14844 0.47656 0.375 0 0 0.30859 1.5 1.8984 2.418s3.0469 0.43359 3.0469 0.43359c0.25-0.082031 0.51562 0.054687 0.59375 0.30469 0.082031 0.25-0.054688 0.51562-0.30469 0.59375 0 0-1.8711 0.60156-3.8086-0.51562-1.9375-1.1172-2.3516-3.043-2.3516-3.043-0.054687-0.25391 0.10938-0.50781 0.36328-0.55859 0.027343-0.003907 0.054687-0.007813 0.082031-0.011719zm40.184 2.4922c0.125 0.007812 0.24219 0.0625 0.32812 0.15625 0.17578 0.19531 0.16016 0.49219-0.035156 0.66797 0 0-1.1445 1.0195-1.1445 2.8555 0 1.832 1.1445 2.8516 1.1445 2.8516 0.19531 0.17578 0.21094 0.47266 0.035156 0.66797-0.17578 0.19531-0.47266 0.21094-0.66797 0.035157 0 0-1.457-1.3203-1.457-3.5547 0-2.2383 1.457-3.5586 1.457-3.5586 0.09375-0.082032 0.21484-0.12891 0.34375-0.12109zm-52.121 2.3516c0.23047-0.007812 0.42969 0.14844 0.47656 0.375 0 0 0.30859 1.5 1.8984 2.418s3.043 0.43359 3.043 0.43359c0.25-0.082031 0.51562 0.054687 0.59766 0.30469 0.078125 0.25-0.054688 0.51562-0.30469 0.59375 0 0-1.8711 0.60156-3.8086-0.51562-1.9375-1.1172-2.3516-3.043-2.3516-3.043-0.054687-0.25391 0.10938-0.50781 0.36328-0.55859 0.027343-0.003907 0.054687-0.007813 0.082031-0.011719zm39.559 8.0547c0.125 0.007812 0.24219 0.0625 0.32812 0.15625 0.17188 0.19531 0.15625 0.49219-0.035156 0.66797 0 0-1.1445 1.0195-1.1445 2.8555 0 1.832 1.1445 2.8516 1.1445 2.8516 0.19531 0.17578 0.21094 0.47266 0.035156 0.66797-0.17578 0.19531-0.47266 0.21094-0.66797 0.035157 0 0-1.457-1.3203-1.457-3.5547 0-2.2383 1.457-3.5586 1.457-3.5586 0.09375-0.085938 0.21484-0.12891 0.34375-0.12109zm-28.984 4.1094c0.22656-0.007813 0.42969 0.14844 0.47656 0.375 0 0 0.30859 1.5 1.8984 2.418 1.5859 0.91797 3.043 0.43359 3.043 0.43359 0.25-0.082031 0.51172 0.054688 0.59375 0.30469 0.082032 0.25-0.054687 0.51562-0.30469 0.59375 0 0-1.8711 0.60156-3.8086-0.51562-1.9375-1.1172-2.3516-3.043-2.3516-3.043-0.054688-0.25391 0.10938-0.50781 0.36328-0.55859 0.027344-0.003906 0.054688-0.007812 0.082031-0.011719z"/>
</svg>