<svg xmlns="http://www.w3.org/2000/svg" version="1.1" viewBox="-5.0 -10.0 110.0 135.0">
 <path d="m43.734 13.754c-5.7148-0.03125-11.238 0.98438-15.621 3.6445-12.836 7.793-8.9648 20.438-10.32 27.422-0.78125 4.0234-3.4414 6.2578-5.5273 9.1758-2.0859 2.918-2.082 5.9453-2.082 8.0312 0 2.0859-0.21094 3.2305-0.10547 11.051s7.8945 10.637 13.973 12.094c18.422 4.4219 28.066-6.1172 35.141-9.1758 7.7148-3.3359 16.477-3.3359 23.672-9.3828 5.6055-4.707 7.1602-8.0039 7.0859-11.57-0.050781-2.6055 0.023437-9.2773-0.20703-13.973-0.46094-9.4141-10.324-16.164-20.23-21.168-6.1914-3.1289-16.25-6.0938-25.777-6.1484zm-1.707 5.3203c6.3281-0.35938 13.23 0.82422 19.348 3.1562 5.9727 2.2734 11.738 4.9531 16.023 8.3984 4.2852 3.4492 7.1758 7.9258 6.5742 13.246-0.28516 2.5273-1.8516 4.6133-3.875 6.3359-2.0234 1.7227-4.5742 3.1602-7.2852 4.4102-5.4219 2.5-11.516 4.2266-15.02 5.2344-0.82422 0.23828-2.8047 1.2969-5.2031 2.6367-2.3984 1.3398-5.3242 2.9531-8.6055 4.3398-6.5586 2.7695-14.668 4.6523-22.695 1.3008-1.4688-0.61328-2.7539-1.375-3.75-2.4297-1-1.0547-1.668-2.4375-1.7734-3.9648-0.21094-3.0508 1.4727-6.3242 4.9688-10.434 2.9766-3.4922 3.2695-8.1367 3.2227-12.867-0.023437-2.3672-0.13281-4.7109 0.058594-6.9062s0.69531-4.332 2.1562-6c3.6758-4.1992 9.5273-6.0938 15.855-6.4531zm0.19922 3.4961c-5.7422 0.32422-10.633 2.0781-13.422 5.2617-0.72656 0.83203-1.1406 2.1562-1.3047 4.0039-0.16406 1.8477-0.070312 4.1172-0.042969 6.5586 0.050781 4.8828-0.17578 10.617-4.0586 15.176-3.2344 3.7969-4.2422 6.4609-4.1406 7.918 0.050782 0.73047 0.28906 1.2422 0.81641 1.8008 0.52734 0.55859 1.3906 1.1172 2.5625 1.6094 6.8242 2.8516 13.852 1.293 19.984-1.2969 3.0664-1.293 5.8789-2.8359 8.2617-4.168 2.3828-1.332 4.2344-2.4531 5.9414-2.9453 3.5156-1.0117 9.4531-2.7109 14.523-5.0469 2.5352-1.168 4.8438-2.5 6.4766-3.8945 1.6367-1.3945 2.5195-2.7734 2.668-4.0625 0.44141-3.9023-1.5195-7.0898-5.2891-10.125-4.168-3.168-8.9023-5.5-13.789-7.3711-2.1992-0.83984-4.0781 0.49609-4.5898 2.793-0.12891 0.58203-0.28516 1.1875-0.47266 1.8125-0.79297 2.6289 0.26953 5.1055 2.9492 5.7305l9.4609 2.2109c0.94141 0.21875 1.5273 1.1602 1.3086 2.1016-0.21875 0.94141-1.1602 1.5273-2.1016 1.3047l-10.758-2.5156c-2.6328-0.61719-5.6484 0.99219-7.5781 2.8789-0.11719 0.11328-0.24219 0.23047-0.37109 0.33594-9.2188 7.7695-19.418 16.586-19.418 16.586-0.69922 0.66797-1.8047 0.64453-2.4727-0.054687-0.66797-0.69922-0.64453-1.8047 0.054687-2.4727 0 0 9.9766-9.25 18.902-17.594 5.1602-4.8242 6.8477-9.2422 7.3828-12.34 0.29297-1.707-1.1289-3.4453-2.8438-3.7188-2.9375-0.46484-5.8789-0.63672-8.6406-0.48047z"/>
</svg>