<svg xmlns="http://www.w3.org/2000/svg" version="1.1" viewBox="-5.0 -10.0 110.0 135.0">
 <path d="m48.289 11.363c-4.0664-0.11719-8.418 2.0078-10.312 6.8516-7.9102-1.4844-12.383 3.8516-12.176 9.0312-6.1992 0.125-7.9062 3.1445-7.8047 8.207-2.3203 1.0938-5.8672 3.3438-5.7266 9.75-0.67969 0.19531-1.418 0.47266-1.9453 0.67578-1.6836 1.0195 0.32031 14.988 6.8789 23.219 3.1758 3.9844 5.6523 7.5312 13.988 11.684 0.015625 1.0312-0.050781 1.9492 0.039063 2.4805 0.73828 4.2148 8.7852 5.3828 18.77 5.3789 9.9844 0 18.031-1.1641 18.77-5.3789 0.09375-0.53125 0.023438-1.4492 0.039063-2.4805 8.3359-4.1523 10.809-7.6992 13.988-11.684 6.5586-8.2305 8.5625-22.199 6.8789-23.219-0.73828-0.33984-1.4844-0.51172-2.0742-0.55469-0.27344-1.4492-0.69531-3.2031-3.5117-4.4531 1.1523-5.6094-1.8047-8.5-5.3125-8.6875 0.36719-5.6211-3.0703-9.3398-9.0859-9.1797 0.26953-4.8047-5.7539-9.7539-12.617-6.7188-2.0703-4.3008-6.9062-4.8672-8.7812-4.9219zm-0.074218 2.5c3.4102 0.097657 6.5938 1.9258 7.0234 4.2422 0.16016 0.84766 1.1094 1.2852 1.8555 0.85156 6.7969-3.957 11.066 2.2383 9.918 4.8867-0.39062 0.90234 0.35938 1.8789 1.332 1.7344 5.7227-0.85547 8.8359 2.3672 7.8359 7.6641-0.16406 0.86328 0.58984 1.6172 1.4531 1.4609 4.1914-0.76562 4.8516 3.5391 3.9375 6.4883-0.21094 0.67969 0.1875 1.3984 0.875 1.5781 3.5039 0.91797 3.1211 4.8203 3.0312 5.4727-7.6523 3.3516-20.035 4.9453-35.477 5.3984-15.016-0.44141-27.133-1.9609-34.828-5.125-1.5273-7.582 1.5273-9.9805 4.5-11.172 0.5-0.19922 0.8125-0.69531 0.78125-1.2344-0.30078-5.25 1.6328-6.8672 6.5859-6.5 0.83594 0.0625 1.4922-0.69922 1.3125-1.5156-0.75781-3.418 2.2578-9.3438 10.02-7.3125 0.66016 0.17188 1.3359-0.21484 1.5195-0.87109 1.3086-4.625 4.8125-6.1484 8.3242-6.0469zm1.8555 8.4258c-2.1953-0.089843-4.0742 0.85156-4.7969 2.5273-0.27344 0.63281 0.019531 1.3711 0.65625 1.6406 0.63281 0.27344 1.3711-0.019531 1.6445-0.65234 0.25-0.58594 0.89453-1.0781 2.3945-1.0195 0.69141 0.027344 1.2734-0.50781 1.3008-1.1992 0.027344-0.6875-0.50781-1.2695-1.1953-1.3008zm-12.52 6.3086c-1.1133 0.003906-2.0469 0.54297-2.6367 1.1914-0.58984 0.64844-0.90625 1.3789-1.0391 2.0703-0.12891 0.67969 0.31641 1.332 0.99609 1.4609 0.67969 0.12891 1.332-0.31641 1.4609-0.99609 0.042969-0.22266 0.20703-0.60938 0.42969-0.85156 0.22266-0.24219 0.42578-0.37109 0.80078-0.375 0.69141-0.003906 1.2461-0.56641 1.2422-1.2539-0.003907-0.69141-0.56641-1.25-1.2578-1.2461zm22.031 0.44141c-0.63672 0.027344-1.2773 0.17578-1.8945 0.45313-0.62891 0.28516-0.90625 1.0273-0.62109 1.6562 0.28516 0.62891 1.0273 0.90625 1.6562 0.625 1.3203-0.59766 2.625-0.074219 3.082 0.97656 0.27344 0.63281 1.0117 0.92188 1.6445 0.64844 0.63281-0.27344 0.92578-1.0117 0.64844-1.6445-0.77734-1.7891-2.6094-2.7891-4.5117-2.7109zm-12.086 5.9922c-0.33984 0-0.6875 0.035156-1.043 0.11719-0.67188 0.15625-1.0938 0.82812-0.9375 1.5 0.15625 0.67187 0.82422 1.0938 1.5 0.9375 0.71094-0.16406 1.2266 0.007812 1.668 0.32812 0.44141 0.31641 0.74219 0.83594 0.79297 1.0781 0.15234 0.67187 0.82031 1.0977 1.4922 0.94531s1.0977-0.82031 0.94531-1.4961c-0.22266-0.99219-0.83984-1.8906-1.7773-2.5625-0.46875-0.33594-1.0352-0.59766-1.6641-0.73828-0.3125-0.070313-0.64062-0.10938-0.98047-0.10938zm23.371 3.1641c-0.50391-0.019531-0.97266 0.26953-1.1797 0.73047-0.28516 0.62891-0.011719 1.3672 0.61719 1.6562 0.11719 0.054688 0.33984 0.21094 0.44531 0.33984 0.0625 0.074219 0.078125 0.11719 0.085938 0.12109-0.066407 0.67188 0.41406 1.2734 1.082 1.3633 0.68359 0.089844 1.3125-0.39453 1.3984-1.082 0.10547-0.83203-0.25-1.5273-0.64453-2-0.39453-0.47266-0.84766-0.79688-1.3281-1.0156-0.14844-0.066406-0.3125-0.10547-0.47656-0.10938zm-41.918 0.36328c-0.26562-0.003906-0.53125 0.011718-0.80078 0.046875-0.53906 0.074219-1.082 0.23438-1.6055 0.50391-1.043 0.53906-1.9609 1.6094-2.207 3.0469-0.11719 0.67969 0.34375 1.3242 1.0234 1.4414 0.67969 0.11719 1.3281-0.34375 1.4414-1.0273 0.11719-0.69922 0.41797-1 0.88281-1.2383 0.46484-0.24219 1.1367-0.31641 1.6484-0.23438 0.68359 0.10938 1.3242-0.35547 1.4297-1.0391 0.10938-0.68359-0.35547-1.3203-1.0391-1.4297-0.25391-0.039062-0.51172-0.0625-0.77734-0.070312zm13.812 5.4219c-1-0.03125-1.9531 0.089843-2.8125 0.50781-0.85938 0.42188-1.5664 1.1758-1.9766 2.125-0.27344 0.63672 0.019532 1.3711 0.65625 1.6406 0.63281 0.27344 1.3672-0.019531 1.6406-0.65625 0.20703-0.48438 0.42969-0.69531 0.78125-0.86719 0.35156-0.17188 0.88672-0.27344 1.6289-0.25 0.69141 0.023437 1.2695-0.51953 1.2891-1.2109 0.023438-0.69141-0.51953-1.2695-1.2109-1.2891zm18.758 0.11328c-0.60547-0.003906-1.2266 0.10547-1.8242 0.34375-1.1953 0.47656-2.2852 1.668-2.418 3.2773-0.054688 0.6875 0.45703 1.2891 1.1445 1.3477 0.6875 0.054688 1.293-0.45703 1.3477-1.1445 0.058594-0.72656 0.33594-0.95312 0.84766-1.1562 0.51172-0.20312 1.2734-0.17969 1.7148 0 0.64062 0.25781 1.3672-0.050781 1.625-0.6875 0.25781-0.64062-0.050781-1.3672-0.6875-1.625-0.55078-0.22266-1.1445-0.34375-1.7539-0.34766z"/>
</svg>