<svg xmlns="http://www.w3.org/2000/svg" version="1.1" viewBox="-5.0 -10.0 110.0 135.0">
 <path d="m6.25 85.938c0 3.4531 2.7969 6.25 6.25 6.25h46.875c3.4531 0 6.25-2.7969 6.25-6.25v-12.5h-59.375z"/>
 <path d="m88.281 73.438h-19.531v10.938h19.531c3.0156 0 5.4688-2.4531 5.4688-5.4688s-2.4531-5.4688-5.4688-5.4688z"/>
 <path d="m76.277 30.227c-0.64844-2.3359-2.3008-4.207-4.5391-5.1328l-10.102-4.1836c-2.2383-0.92969-4.7305-0.77344-6.8398 0.41797s-3.5234 3.25-3.8789 5.6484l-2.2578 15.16c-0.24609 1.625 0.38281 3.207 1.5781 4.2344l-1.2891 3.1094c-0.77344-0.31641-1.6211-0.32031-2.3906 0-0.77344 0.32031-1.3711 0.92188-1.6914 1.6914l-0.59766 1.4453c-0.64062 1.543-0.64062 3.2422 0 4.7852 0.63672 1.543 1.8398 2.7461 3.3828 3.3828l5.7734 2.3906c0.76953 0.32031 1.582 0.48047 2.3906 0.48047s1.6211-0.16016 2.3906-0.48047c1.543-0.63672 2.7422-1.8398 3.3828-3.3828l0.59766-1.4453c0.65625-1.5938-0.10156-3.4258-1.6914-4.082l1.293-3.1211c0.11719 0.007813 0.23438 0.035157 0.35156 0.035157 1.4492 0 2.8516-0.67578 3.75-1.8945l9.125-12.32c1.4414-1.9453 1.8984-4.4023 1.2539-6.7344z"/>
 <path d="m16.914 36.781c0.90234 1.2227 2.3047 1.8984 3.7539 1.8984 0.11719 0 0.23438-0.027344 0.35156-0.035157l1.293 3.125c-1.5898 0.65625-2.3516 2.4883-1.6914 4.082l0.59766 1.4453c0.64062 1.543 1.8398 2.7422 3.3828 3.3828 0.76953 0.32031 1.582 0.48047 2.3906 0.48047 0.8125 0 1.6211-0.16016 2.3906-0.48047l5.7734-2.3906c1.543-0.63672 2.7461-1.8398 3.3828-3.3828 0.64063-1.543 0.64063-3.2422 0-4.7852l-0.59766-1.4453c-0.32031-0.76953-0.92188-1.3711-1.6914-1.6914-0.76953-0.31641-1.6211-0.32031-2.3906 0l-1.2891-3.1094c1.1992-1.0273 1.8242-2.6094 1.5781-4.2305l-2.2578-15.164c-0.35547-2.3945-1.7695-4.4531-3.8789-5.6484-2.1055-1.1914-4.6016-1.3477-6.8398-0.41797l-10.098 4.1836c-2.2383 0.92969-3.8906 2.7969-4.5391 5.1328-0.64844 2.3359-0.19141 4.793 1.25 6.7383l9.125 12.316z"/>
 <path d="m32.812 59.375c0 2.082-3.125 2.082-3.125 0s3.125-2.082 3.125 0"/>
 <path d="m39.062 65.625c0 2.082-3.125 2.082-3.125 0s3.125-2.082 3.125 0"/>
 <path d="m26.562 65.625c0 2.082-3.125 2.082-3.125 0s3.125-2.082 3.125 0"/>
 <path d="m50 67.188c0 2.082-3.125 2.082-3.125 0s3.125-2.082 3.125 0"/>
</svg>