<svg xmlns="http://www.w3.org/2000/svg" version="1.1" viewBox="-5.0 -10.0 110.0 135.0">
 <g>
  <path d="m53.801 79.301c-1.1992-0.10156-2.3984 0.10156-3.3984 0.5 0.60156-0.89844 1.1016-2 1.1992-3.1992 0.39844-3.5-2.1992-6.5-2.3008-6.6992-0.19922-0.19922-0.5-0.30078-0.80078-0.10156-0.10156 0.10156-3.3984 2.5-3.8008 5.8984-0.30078 2.5 1 4.8984 1.8008 6-5 3.3008-10.801 5.5-17.5 6.6992-0.39844 0.10156-0.69922 0.5-0.60156 0.89844 0.10156 0.39844 0.39844 0.60156 0.80078 0.60156h0.10156c7-1.1992 13-3.5 18.199-7 0.80078 1 2.8008 2.8984 5.5 3.1992h0.69922c3.1992 0 5.8008-2.1992 5.8984-2.3008 0.19922-0.19922 0.30078-0.5 0.10156-0.80078-0.097657 0.003906-2.5-3.2969-5.8984-3.6953z"/>
  <path d="m60.5 72.801c-1.1016 0-2.1016 0.30078-3 0.69922 0.39844-0.89844 0.69922-1.8984 0.80078-3 0-3.3008-2.6992-5.8008-2.8008-5.8984-0.19922-0.19922-0.60156-0.19922-0.80078 0-0.10156 0.10156-2.8984 2.6992-2.8984 5.8984s2.6016 5.6992 2.8008 5.8984c0.10156 0.10156 0.69922 0.80078 1.8008 1.5 1.1016 0.69922 2.5 1.3984 4.1992 1.3984 3.1992 0 5.8008-2.6992 5.8984-2.8008 0.19922-0.19922 0.19922-0.60156 0-0.80078-0.10156-0.19531-2.6992-2.8945-6-2.8945z"/>
  <path d="m66.301 65.801c-1 0.10156-1.8984 0.5-2.6016 1 0.30078-0.80078 0.5-1.8008 0.30078-2.8008-0.39844-3-3.1992-5.1016-3.3008-5.1992-0.19922-0.19922-0.60156-0.10156-0.80078 0.10156-0.10156 0.10156-2.3008 2.8008-2 5.8008 0.39844 3 3 5 3.3008 5.1992 0.10156 0.10156 2.3984 2 5.1992 2h0.69922c3-0.39844 5.1016-3.1992 5.1992-3.3008 0.19922-0.19922 0.10156-0.60156-0.10156-0.80078-0.19531-0.19922-2.8945-2.4023-5.8945-2z"/>
  <path d="m76.602 59.398c-0.10156-0.10156-2.8984-1.8008-5.6016-1.1016-0.80078 0.19922-1.6016 0.69922-2.1992 1.1016 0.10156-0.80078 0.19922-1.6016 0-2.5-0.69922-2.6992-3.5-4.3008-3.6992-4.3984-0.30078-0.10156-0.60156 0-0.80078 0.19922-0.10156 0.10156-1.8008 2.8008-1.1016 5.6016 0.69922 2.6992 3.5 4.3008 3.6992 4.3984 0.10156 0.10156 0.60156 0.39844 1.3984 0.69922 0.70312 0.30078 1.7031 0.60156 2.7031 0.60156 0.5 0 0.89844 0 1.3984-0.19922 2.6992-0.69922 4.3008-3.5 4.3984-3.6992 0.10156-0.20312 0.003906-0.5-0.19531-0.70312z"/>
  <path d="m79.898 50.801c-0.10156 0-2.8008-1.3008-5.1992-0.30078-0.69922 0.30078-1.3008 0.69922-1.8008 1.1992 0-0.69922-0.10156-1.3984-0.39844-2.1016-1-2.3984-3.8008-3.5-3.8984-3.5-0.30078-0.10156-0.60156 0-0.69922 0.30078-0.10156 0.10156-1.3008 2.8008-0.30078 5.1992 1 2.3984 3.6992 3.5 3.8984 3.5 0.19922 0.10156 1.5 0.69922 3.1992 0.69922 0.69922 0 1.3984-0.10156 2-0.39844 2.3984-1 3.5-3.8008 3.5-3.8984 0.10156-0.30078 0-0.60156-0.30078-0.69922z"/>
  <path d="m81.898 42.699c-0.10156 0-2.6992-0.80078-4.8008 0.30078-0.60156 0.30078-1 0.80078-1.3984 1.1992-0.10156-0.60156-0.19922-1.1992-0.60156-1.6992-1.1992-2.1016-3.8008-2.6992-3.8984-2.6992-0.30078-0.10156-0.60156 0.10156-0.69922 0.39844 0 0.10156-0.80078 2.6992 0.39844 4.8008 1.1016 2 3.6016 2.6016 3.8984 2.6992 0.10156 0 1 0.30078 2.1016 0.30078 0.80078 0 1.8008-0.10156 2.6992-0.60156 2.1016-1.1992 2.6992-3.8008 2.6992-4 0.003906-0.29688-0.097656-0.59766-0.39844-0.69922z"/>
  <path d="m78.801 37.5c0.19922-2.1016-1.6016-4-1.6016-4s-2 1.6016-2.1992 3.6992c-0.19922 2.1016 1.6016 4 1.6016 4s2-1.5 2.1992-3.6992z"/>
  <path d="m40.801 51c-1-3.1016-4.3008-4.8008-4.5-4.8008-0.30078-0.10156-0.60156 0-0.69922 0.19922-0.10156 0.10156-2 3.3984-1 6.5 0.89844 3 4.1016 4.6992 4.3984 4.8008 0.10156 0.10156 2.1992 1.3008 4.6016 1.3008 0.60156 0 1.3008-0.10156 1.8984-0.30078 3.1016-1 4.8008-4.3008 4.8984-4.5 0.10156-0.30078 0-0.60156-0.19922-0.69922-0.10156-0.10156-3.3984-2-6.5-1-1.1016 0.30078-1.8984 0.89844-2.6992 1.6016 0.10156-1 0.10156-2.1016-0.19922-3.1016z"/>
  <path d="m53.5 44.898c0.10156-0.30078 0-0.60156-0.30078-0.69922-0.19922 0-3.3984-1.3984-6.1992-0.19922-0.89844 0.39844-1.6016 1-2.1992 1.6992 0-0.89844-0.10156-1.8008-0.5-2.6992-1.1992-2.8008-4.5-3.8984-4.6992-4-0.30078-0.10156-0.60156 0-0.69922 0.30078-0.10156 0.10156-1.3984 3.3984-0.19922 6.1016 1.1992 2.8008 4.5 3.8984 4.6992 4 0.19922 0.10156 1.6992 0.69922 3.5 0.69922 0.80078 0 1.8008-0.10156 2.6016-0.5 2.7969-1.2031 3.8945-4.5 3.9961-4.7031z"/>
  <path d="m54.898 34.898c-0.10156 0-3.3008-0.89844-5.6992 0.60156-0.69922 0.5-1.3008 1.1016-1.6992 1.6992-0.10156-0.80078-0.30078-1.6016-0.80078-2.3008-1.5-2.3984-4.6992-3.1016-4.8008-3.1016-0.30078-0.10156-0.60156 0.10156-0.69922 0.39844 0 0.10156-0.89844 3.1992 0.60156 5.6992 1.5 2.3984 4.6992 3.1016 4.8008 3.1016 0.19922 0 1 0.30078 2.1992 0.30078 1 0 2.3008-0.19922 3.3984-0.89844 2.3984-1.5 3.1016-4.6992 3.1016-4.8008 0.097657-0.29688-0.10156-0.59766-0.40234-0.69922z"/>
  <path d="m55.602 25.699c-0.10156 0-3.1016-0.39844-5.1016 1.1992-0.60156 0.5-1 1.1016-1.3008 1.6992-0.19922-0.69922-0.5-1.3008-1-1.8984-1.6992-2-4.6016-2.1992-4.8008-2.1992-0.30078 0-0.60156 0.19922-0.60156 0.5 0 0.10156-0.39844 3.1016 1.1992 5.1016 1.6016 2 4.5 2.1992 4.6992 2.1992h0.89844c1.1016 0 2.8008-0.19922 4.1992-1.3008 2-1.6992 2.1992-4.6016 2.1992-4.6992 0.10937-0.30078-0.19141-0.5-0.39063-0.60156z"/>
  <path d="m44 17.801c-0.30078 0-0.5 0.30078-0.5 0.60156 0 0.10156 0 2.8008 1.8008 4.5 1.3984 1.3008 3.3984 1.3984 4.1992 1.3984h0.30078c0.19922 0 2.8984-0.10156 4.3984-1.6992 1.6016-1.6992 1.5-4.5 1.3984-4.6016 0-0.30078-0.30078-0.5-0.60156-0.5-0.10156 0-0.80078 0-1.6992 0.19922s-2 0.69922-2.8008 1.5c-0.5 0.5-0.69922 1-1 1.6016-0.19922-0.5-0.60156-1-1.1016-1.5-1.5938-1.6992-4.293-1.5-4.3945-1.5z"/>
  <path d="m49.602 17.602s1.5-2.1016 1-4.1992c-0.5-2.1016-2.6992-3.3984-2.6992-3.3984s-1.5 2.1016-1 4.1992c0.39844 2.0977 2.6992 3.3984 2.6992 3.3984z"/>
  <path d="m34.199 66.102c0.89844 0.60156 2.8008 1.5 5 1.5 0.39844 0 0.80078 0 1.1992-0.10156 3.3984-0.60156 5.6016-4 5.6992-4.1992 0.19922-0.19922 0.10156-0.60156-0.10156-0.80078-0.10156-0.10156-3.3984-2.5-6.8008-1.8008-1.1992 0.19922-2.1992 0.80078-3.1016 1.5 0.30078-1 0.39844-2.1992 0.19922-3.3984-0.60156-3.3984-4-5.6016-4.1992-5.6992-0.30078-0.19922-0.60156-0.10156-0.80078 0.10156-0.10156 0.10156-2.5 3.3984-1.8008 6.8008 0.5 2.5 2.3984 4.3008 3.5 5.1992-3.8008 4.6016-8.6016 8.3984-14.699 11.602-0.39844 0.19922-0.5 0.69922-0.30078 1.1016 0.10156 0.30078 0.39844 0.39844 0.69922 0.39844 0.10156 0 0.19922 0 0.39844-0.10156 6.1094-3.3047 11.109-7.3047 15.109-12.102z"/>
 </g>
</svg>