<svg xmlns="http://www.w3.org/2000/svg" version="1.1" viewBox="-5.0 -10.0 110.0 135.0">
 <path d="m76.117 20.543c-7.4648-0.20703-19.105 2.8711-37.605 14.148-34.008 20.727-31.34 37.801-24.816 41.918 8.3984 5.3008 23.379 4.6445 51.406-14.391 30.633-20.809 26.695-33.367 22.105-37.539-2.0078-1.8242-5.2852-3.9727-11.09-4.1367zm-14.555 9.8008c2.9023-0.054688 6.4492 0.66016 8.8906 1.4531 3.8594 1.25 7.8008 4.6484 7.1406 5.5273-0.86719 1.1602-3.4414 0.20703-10.062-1.875-6.6211-2.0859-11.152-3.1523-10.113-4.0156 0.89453-0.74219 2.4023-1.0547 4.1406-1.0898zm-15.953 8.6172c3.2656-0.003907 7.1562 0.93359 9.6211 1.6445 4.3281 1.25 10.562 5.2227 9.2812 6.8828-0.88672 1.1484-6.5703-0.83594-13.191-2.9219-6.6211-2.0859-11.496-3.4375-10.48-4.3281 1.0703-0.9375 2.8086-1.2773 4.7656-1.2812zm-14.906 11.137c3.2656-0.003906 7.1562 0.9375 9.6211 1.6484 4.3281 1.25 11.016 5.4492 9.8555 7.1953-0.9375 1.4062-7.2461-0.99219-13.867-3.0781-6.6211-2.0859-11.391-3.5938-10.375-4.4844 1.0703-0.9375 2.8086-1.2812 4.7656-1.2852z"/>
</svg>