<svg xmlns="http://www.w3.org/2000/svg" version="1.1" viewBox="-5.0 -10.0 110.0 135.0">
 <path d="m56.164 14.875c-4.3359-0.18359-8.6211 0.20703-12.035 0.97266-5.0078 1.125-6.1328 3.1367-6.1328 3.1367s-5.0586-0.51953-13.766 6.1523-8.9688 13.293-8.9688 13.293-5.4219 3.1797-5.582 15.695c-0.15625 12.512 7.457 18.25 7.457 18.25s3.3359 4.1719 6.2578 6.7266c2.918 2.5547 9.4375 5.7344 19.238 6.0469 9.8008 0.3125 18.875-3.4922 21.797-5.3164 2.918-1.8242 2.2422-5.3711 2.2422-5.3711 4.6914-2.1914 6.3594-4.875 6.3594-4.875l3.6914 1.4961c3.0977 1.2539 8.4062-2.582 12.387-15.559 3.9805-12.977-3.0938-20.734-3.0938-20.734s0.47266-9.707-17.516-17.414c-3.6094-1.5469-7.9961-2.3125-12.328-2.4961zm-3.0781 2.5234c2.1367 0 2.3242 0.8125 3.1719 1.1797 0.84766 0.36719 3.5039 1.2539 3.3164 2.8398-0.14062 1.1758-1.5391 1.6406-2.0625 1.6953-1.4023 0.14844-2.4141-0.53516-3.2969-0.38672-0.88672 0.14844-2.2305 1.0117-3.7422 0.64453 0 0-2.0664-0.36719-2.1016-1.6211s1.9531-4.3516 4.7188-4.3516zm-19.438 6.9844c1.3047 0.15625 2.8281 1.3086 2.4414 2.9141-0.45312 1.8789-2.2422 3.207-3.1602 3.3477-3.6133 0.55859-4.6133 0.42188-5.6992-1.1094-1.2539-1.7656 1.8125-4.0312 1.8125-4.0312 1.8867-1.1445 2.4492-1.0938 4.6055-1.1211zm31.98 4.7109c0.57031-0.003906 1.2305 0.10547 1.9727 0.41406 1.8398 0.76172 3.3984 2.9609 2.9961 4.3125-1.1172 3.7773-4.0742 2.0234-5.2227 2.0977-1.1641 0.074219-4.8906 1.1719-5.3359-2.4023-0.23047-1.8633 0.67188-2.3359 0.67188-2.3359 1.6133-1.1797 1.8711-0.94141 2.4609-1.2852 0.37109-0.21875 1.1992-0.78906 2.4531-0.80078zm-17.781 6c0.23828 0 0.50391 0.019531 0.80859 0.054688 1.3047 0.15625 3.457 1.8984 2.9219 4.5742-0.37891 1.8945-1.75 4.0156-4.707 4.5273-3.6992 0.63672-6.0312-2.6953-6.0312-4.5742 0-1.8789 1.2227-3.0352 1.2227-3.0352 1.6133-1.1797 2.7578-0.71875 3.3828-0.77344 0.54688-0.046876 0.74609-0.78516 2.4062-0.77344zm30.031 3.9648c0.9375 0.050781 1.7188 1.1484 1.668 3.4961-0.050781 2.3477-1.4062 3.1289-2.293 3.1289-0.88672 0-3.1055-1.6094-3.1836-3.0234-0.058593-1.0352 1.668-1.668 2.0859-2.1367s0.78125-1.5117 1.7188-1.4609zm-51.062 1.3398c0.24609 0.007812 0.51953 0.027343 0.82422 0.0625 1.3047 0.15625 3.3477 1.7148 2.8086 4.3906-0.37891 1.8945-1.6484 4.1562-4.5977 4.7109-4.1797 0.78516-5.8516-2.5508-5.8516-4.4258 0-1.8789 0.96484-2.7422 0.96484-2.7422 1.6133-1.1797 2.6133-0.83203 3.1641-1.1406 0.48438-0.26953 0.95703-0.89844 2.6875-0.85547zm32.691 9.3945c0.36328-0.015625 0.82422 0.007812 1.4219 0.10547 0.97266 0.15625 3.4375 1.9805 3.1055 4.2812-0.35547 2.4492-1.9023 4.6445-5.8125 4.75-3.9102 0.10547-5.332-2.9531-5.3359-4.832 0-1.8789 1.4844-3 1.4844-3 1.9805-1.5117 2.7578-0.71875 3.3828-0.76953 0.46875-0.039063 0.66797-0.47656 1.7539-0.53125zm-19.457 9.0039c2.1523-0.10156 3.7461 1.793 3.7344 3.7266-0.011718 1.8359-1.9297 5.2148-5.8398 5.3164-3.9102 0.10547-5.7852-2.9727-5.7852-4.8477 0-1.8789 1.4062-2.8125 1.4062-2.8125 1.9805-1.5117 2.8672-0.3125 3.4922-0.36719 0.625-0.050781 0.5625-0.90234 2.9961-1.0156zm-14.062 6.1484c0.039063 0 0.078125 0 0.12109 0.003907 1.3281 0.10547 0.78125 1.332 1.2773 1.9844 0.49609 0.65234 1.2266 0.9375 1.1992 1.9805-0.027344 1.043-1.0938 1.6445-2.2656 1.6953 0 0-2.4766 0.10938-2.4766-1.6719 0-0.59766 0.28516-1.0156 0.46875-1.3281 0.17578-0.30469 0.45312-2.6133 1.6797-2.6602zm56.055 9.0938c-1.0117 0.023438-0.85547 0.66797-0.87109 1.5508-0.015625 0.77734-1.5898 0.69922-0.78906 2.2734 0.54688 1.0781 3.0078 0.62891 3.2031-1.2109 0.24609-2.3555-0.92578-2.6289-1.543-2.6133zm-11.016 3.6172c-0.26172 0-0.54688 0.097656-0.87109 0.35156-0.94922 0.75-0.30469 4 2.3594 4.168 2.3633 0.14844 3.0703-2.4609 2.6562-2.9102-0.8125-0.88672-1.2539-0.18359-2.0273-0.25781-0.60547-0.058593-1.1875-1.3477-2.1133-1.3477z"/>
</svg>