<svg xmlns="http://www.w3.org/2000/svg" version="1.1" viewBox="-5.0 -10.0 110.0 135.0">
 <path d="m47.223 9.9492c-3.1172 0.007812-6.4297 1.1797-8.9922 4.3008-7.9062-3.6367-14.957 4.9844-13.199 10.469-12.09 2.4141-15.121 16.277-6.1172 23.523-1.875 13.641 14.426 16.512 19.168 7.5195-1.7383-2.4609-3.082-4.1641-5.332-5.7383-2.2656 0.85937-4.5859 0.55469-6.9414-0.52734 1.9766-0.050782 3.5742-0.30859 4.8945-0.73047 0.87891-0.27734 1.6328-0.62891 2.293-1.0352 2.2031-1.3594 3.3438-3.3555 4.4609-5.4609 0.41406 0.10547 0.82422 0.19922 1.2305 0.28125 2.625 0.50781 5.0469 0.38281 7.5312-0.64844 0.83984-0.34766 1.6875-0.79688 2.5547-1.3633 1.5781 1.9219 4.1289 4.6797 7.4727 6.3906 1.6758 0.85547 3.5469 1.4453 5.6016 1.5391 1.2109 0.054688 2.4844-0.066406 3.8125-0.40625 0.59766 0.75391 1.0898 1.5156 1.6602 2.2266 0.35156 0.44141 0.73438 0.86328 1.1875 1.2578 1.2852 1.1172 3.1406 2 6.5156 2.375-2.8555 0.57031-5.5234 0.53125-7.75-0.97656-1.5352 1.793-2.9375 3.6562-3.9023 5.7695 3.3594 3.8867 14.18 4.9023 16.664-5.5312 8.1797-4.3125 7.4453-13.207 2.9492-16.664 1.2344-7.1484-4.6406-10.637-8.8438-10.84 1.6172-9.7695-9.5781-18.047-19.098-13.051-1.7812-1.5352-4.6992-2.6875-7.8203-2.6797zm-6.668 13.699c1.6328 0.046874 3.293 0.51172 4.9688 1.2617-5.3398-0.66406-9.5195 0.59766-11.938 4.7969-4.3359-0.55078-7.0391 1.3086-9.0195 4.2266 1.3398-4.0781 4.1016-6.1406 8.082-6.4648 2.5352-2.8164 5.1836-3.8945 7.9062-3.8164zm21.836 6.8203c2.0703-0.089844 4.3516 0.6875 7.0664 3.875 3.7656-0.59375 6.5664 3.3125 7.3008 5.0078-2.4805-2.1523-5.1719-3.4141-8.3438-2.6602-2.1719-3.0273-4.5898-5.8203-10.586-5.1602 1.4648-0.39453 2.9492-0.99219 4.5625-1.0625zm-14.133 12.574c-0.58594 0.33984-1.1797 0.63281-1.7891 0.86719l1.5664 12.59c-2.3047-3.9609-4.9688-8.0977-7.8008-11.914-0.44531-0.0625-0.89062-0.14844-1.3438-0.25391-1.3672 2.1289-2.7656 3.6406-4.1836 4.6367 3.2461 2.6484 9.375 9.3125 9.5664 21.98 0.18359 12.055-0.8125 14.305-0.77734 16.957 0.023437 1.6562 5.6797 2.1406 8.1094 2.1406 2.4336 0 8-0.8125 7.9648-2.7305-0.035156-1.918-1.3672-6.5625-1.4727-13.75-0.10938-7.1641 3.2852-15.953 7.8789-21.723-0.50781-0.53125-0.98437-1.1641-1.4258-1.9102-1.3398 0.23438-2.5977 0.28906-3.7891 0.1875-1.8711 2.8945-3.6758 5.8516-5.1328 9.1016 0.066406-3.6211 0.23047-7.0547 0.46875-10.344-2.8867-1.3125-5.4062-3.4805-7.8398-5.8438z"/>
<text x="0.0" y="117.5" font-size="5.0" font-weight="bold" font-family="Arbeit Regular, Helvetica, Arial-Unicode, Arial, Sans-serif" fill="#000000">Created by BnB Studio</text><text x="0.0" y="122.5" font-size="5.0" font-weight="bold" font-family="Arbeit Regular, Helvetica, Arial-Unicode, Arial, Sans-serif" fill="#000000">from Noun Project</text></svg>