<svg xmlns="http://www.w3.org/2000/svg" xmlns:xlink="http://www.w3.org/1999/xlink" version="1.1" x="0px" y="0px" viewBox="0 0 256 320" style="enable-background:new 0 0 256 256;" xml:space="preserve">
<g>
<path d="M128,18C67.2,18,18,67.2,18,128c0,60.8,49.2,110,110,110s110-49.2,110-110C238,67.2,188.8,18,128,18z M128,83.9   c11.7,0,21.3,9.5,21.3,21.3c0,11.7-9.5,28-21.3,28s-21.3-16.2-21.3-28S116.3,83.9,128,83.9z M128,172.6c-22,0-39.9-9-39.9-20.1   c0-7.7,9-19.7,23.6-25.7l0.4-0.1l0.2,0.3c4.6,5.9,10.2,9.2,15.7,9.2s11.1-3.3,15.7-9.2l0.2-0.3l0.4,0.1c14.6,6,23.6,18,23.6,25.7   C167.9,163.6,150,172.6,128,172.6z"/>
</g>
</svg>