<svg xmlns="http://www.w3.org/2000/svg" viewBox="0 0 60 75" x="0px" y="0px">
<path d="M58,36.7V23.3a3,3,0,0,0-.4-1.5L50.9,10.2a2.98,2.98,0,0,0-1.1-1.1L38.2,2.4A3,3,0,0,0,36.7,2H23.3a3,3,0,0,0-1.5.4L10.2,9.1a2.98,2.98,0,0,0-1.1,1.1L2.4,21.8A3,3,0,0,0,2,23.3V36.7a3,3,0,0,0,.4,1.5L9.1,49.8a2.98,2.98,0,0,0,1.1,1.1L21.8,57.6a3,3,0,0,0,1.5.4H36.7a3,3,0,0,0,1.5-.4l11.6-6.7a2.98,2.98,0,0,0,1.1-1.1l6.7-11.6A3,3,0,0,0,58,36.7Zm-2-.536a3.013,3.013,0,0,1-.4,1.5L49.436,48.338a3.006,3.006,0,0,1-1.1,1.1L37.662,55.6a3.02,3.02,0,0,1-1.5.4H23.838a3.013,3.013,0,0,1-1.5-.4h0L11.662,49.436a3.006,3.006,0,0,1-1.1-1.1L4.4,37.662a3.02,3.02,0,0,1-.4-1.5V23.838a3.013,3.013,0,0,1,.4-1.5l6.163-10.677a3.006,3.006,0,0,1,1.1-1.1L22.338,4.4a3.02,3.02,0,0,1,1.5-.4H36.162a3.013,3.013,0,0,1,1.5.4l10.677,6.163a3.006,3.006,0,0,1,1.1,1.1L55.6,22.338a3.02,3.02,0,0,1,.4,1.5Z"/>
<path d="M47.7,12.662a.988.988,0,0,0-.364-.365L36.662,6.134a1.007,1.007,0,0,0-.5-.134H23.838a1.013,1.013,0,0,0-.5.134L12.662,12.3a.988.988,0,0,0-.365.364L6.134,23.338a1.007,1.007,0,0,0-.134.5V36.162a1.013,1.013,0,0,0,.134.5L12.3,47.338a.988.988,0,0,0,.364.365l10.677,6.163a1,1,0,0,0,.5.134H36.162a1.013,1.013,0,0,0,.5-.134L47.338,47.7a.988.988,0,0,0,.365-.364l6.163-10.677a1.007,1.007,0,0,0,.134-.5V23.838a1.013,1.013,0,0,0-.134-.5ZM19,35.4a2.992,2.992,0,0,1-.5,1.664l-1.07,1.605A2.993,2.993,0,0,1,14.93,40H13.07a2.993,2.993,0,0,1-2.5-1.336L9.5,37.059A2.992,2.992,0,0,1,9,35.4V24.605a2.992,2.992,0,0,1,.5-1.664l1.07-1.605A2.993,2.993,0,0,1,13.07,20h1.86a2.993,2.993,0,0,1,2.5,1.336l1.07,1.605a2.992,2.992,0,0,1,.5,1.664Zm20-3.788a3.013,3.013,0,0,1-.4,1.5l-1.608,2.787a3.006,3.006,0,0,1-1.1,1.1L33.107,38.6a3.02,3.02,0,0,1-1.5.4H28.393a3.013,3.013,0,0,1-1.5-.4h0l-2.786-1.608a3.006,3.006,0,0,1-1.1-1.1L21.4,33.107a3.02,3.02,0,0,1-.4-1.5V28.393a3.013,3.013,0,0,1,.4-1.5l1.608-2.787a3.006,3.006,0,0,1,1.1-1.1L26.893,21.4a3.02,3.02,0,0,1,1.5-.4h3.214a3.013,3.013,0,0,1,1.5.4l2.787,1.608a3.006,3.006,0,0,1,1.1,1.1L38.6,26.893a3.02,3.02,0,0,1,.4,1.5ZM51,35.4a2.992,2.992,0,0,1-.5,1.664l-1.07,1.605A2.993,2.993,0,0,1,46.93,40H45.07a2.993,2.993,0,0,1-2.5-1.336L41.5,37.059A2.992,2.992,0,0,1,41,35.4V24.605a2.992,2.992,0,0,1,.5-1.664l1.07-1.605A2.993,2.993,0,0,1,45.07,20h1.86a2.993,2.993,0,0,1,2.5,1.336l1.07,1.605a2.992,2.992,0,0,1,.5,1.664Z"/>
<path d="M35.259,25.107a1.025,1.025,0,0,0-.367-.367l-2.785-1.606a1.007,1.007,0,0,0-.5-.134H28.393a1.013,1.013,0,0,0-.5.134l-2.785,1.607a1.025,1.025,0,0,0-.367.367l-1.606,2.785a1.007,1.007,0,0,0-.134.5v3.214a1.013,1.013,0,0,0,.134.5l1.607,2.785a1.025,1.025,0,0,0,.367.367l2.784,1.606a1.013,1.013,0,0,0,.5.134h3.214a1.013,1.013,0,0,0,.5-.134l2.785-1.607a1.025,1.025,0,0,0,.367-.367l1.606-2.785a1.007,1.007,0,0,0,.134-.5V28.393a1.013,1.013,0,0,0-.134-.5ZM30,35a5,5,0,1,1,5-5A5.006,5.006,0,0,1,30,35Z"/>
</svg>