<svg xmlns="http://www.w3.org/2000/svg" version="1.1" viewBox="-5.0 -10.0 110.0 135.0">
 <path d="m65.781 42.207c-1.0977-0.49219-2.2773-0.73828-3.4805-0.73828-1.1992 0-2.3828 0.25-3.4805 0.73828-1.918 0.85547-3.4609 2.4023-4.3164 4.3164-0.49219 1.0977-0.73828 2.2773-0.73828 3.4805 0 1.1992 0.25 2.3828 0.73828 3.4805 0.85547 1.918 2.4023 3.4609 4.3164 4.3164 1.0977 0.49219 2.2773 0.73828 3.4805 0.73828 1.1992 0 2.3828-0.25 3.4805-0.73828 1.918-0.85547 3.4609-2.4023 4.3164-4.3164 0.49219-1.0977 0.73828-2.2773 0.73828-3.4805 0-1.1992-0.25-2.3828-0.73828-3.4805-0.85547-1.918-2.4023-3.4609-4.3164-4.3164zm-3.4805 13.523c-3.1641 0-5.7305-2.5664-5.7305-5.7305s2.5664-5.7305 5.7305-5.7305c3.1641 0 5.7305 2.5664 5.7305 5.7305s-2.5664 5.7305-5.7305 5.7305z"/>
 <path d="m7.8203 74.977c-0.77344 0.72266-0.77344 4.7695 0 5.4922h43.375c-3.4492-1.2578-6.6836-3.1055-9.5664-5.4922z"/>
 <path d="m62.301 46.223c-2.0859 0-3.7773 1.6914-3.7773 3.7773s1.6914 3.7773 3.7773 3.7773c2.0859 0 3.7773-1.6914 3.7773-3.7773s-1.6914-3.7773-3.7773-3.7773z"/>
 <path d="m30.906 58.133c-0.46484-1.8008-0.77344-3.6406-0.92188-5.4922h-4.6289c-0.77344 0.72266-0.77344 4.7695 0 5.4922z"/>
 <path d="m33.859 65.578c-0.96094-1.75-1.7617-3.5938-2.3828-5.4922h-11.969c-0.77344 0.72266-0.77344 4.7695 0 5.4922z"/>
 <path d="m39.473 73.023c-1.6758-1.6641-3.1719-3.5039-4.4531-5.4922h-21.355c-0.77344 0.72266-0.77344 4.7695 0 5.4922z"/>
 <path d="m67.711 41.012c1.4609 0.88281 2.6953 2.1133 3.5781 3.5781 3.2266-2.7891 6.1406-5.9492 8.6484-9.3984-0.85938-1.0195-1.8086-1.9688-2.8281-2.8281-3.4453 2.5117-6.6094 5.4258-9.3984 8.6484z"/>
 <path d="m81.176 36.805c-2.625 3.5312-5.6602 6.7656-9.0156 9.6094 0.41797 1.1484 0.62891 2.3594 0.62891 3.5859s-0.21094 2.4375-0.62891 3.5859c3.3516 2.8438 6.3906 6.0781 9.0156 9.6094 2.707-3.8672 4.1523-8.4492 4.1523-13.195 0-4.75-1.4453-9.3281-4.1523-13.195z"/>
 <path d="m65.887 59.855c-1.1484 0.41797-2.3594 0.62891-3.5859 0.62891-1.2266 0-2.4375-0.21094-3.5859-0.62891-2.8438 3.3516-6.0781 6.3906-9.6094 9.0156 3.8672 2.707 8.4492 4.1523 13.195 4.1523 4.7461 0 9.3281-1.4453 13.195-4.1523-3.5312-2.6211-6.7656-5.6602-9.6094-9.0156z"/>
 <path d="m71.289 55.41c-0.88281 1.4648-2.1133 2.6953-3.5781 3.5781 2.7891 3.2266 5.9492 6.1406 9.3984 8.6484 1.0195-0.85938 1.9688-1.8086 2.8281-2.8281-2.5078-3.4492-5.4219-6.6133-8.6484-9.3984z"/>
 <path d="m58.719 40.145c1.1484-0.41797 2.3594-0.62891 3.5859-0.62891 1.2266 0 2.4375 0.21094 3.5859 0.62891 2.8438-3.3516 6.0781-6.3906 9.6094-9.0156-3.8672-2.707-8.4492-4.1523-13.195-4.1523-4.7461 0-9.3281 1.4453-13.195 4.1523 3.5312 2.6211 6.7656 5.6602 9.6094 9.0156z"/>
 <path d="m62.301 19.527c-16.828 0-30.473 13.641-30.473 30.473 0 16.82 13.633 30.473 30.473 30.473 16.828 0 30.473-13.641 30.473-30.473 0-16.828-13.641-30.473-30.473-30.473zm0 55.449c-13.762 0-24.977-11.152-24.977-24.977 0-13.762 11.152-24.977 24.977-24.977 13.762 0 24.977 11.152 24.977 24.977 0.003906 13.762-11.148 24.977-24.977 24.977z"/>
 <path d="m56.895 58.988c-1.4648-0.88281-2.6953-2.1133-3.5781-3.5781-3.2266 2.7891-6.1406 5.9492-8.6484 9.3984 0.85938 1.0195 1.8086 1.9688 2.8281 2.8281 3.4453-2.5117 6.6094-5.4258 9.3984-8.6484z"/>
 <path d="m53.316 44.59c0.88281-1.4648 2.1133-2.6953 3.5781-3.5781-2.7891-3.2266-5.9492-6.1406-9.3984-8.6484-1.0195 0.85938-1.9688 1.8086-2.8281 2.8281 2.5078 3.4492 5.4219 6.6133 8.6484 9.3984z"/>
 <path d="m52.445 53.586c-0.41797-1.1484-0.62891-2.3594-0.62891-3.5859s0.21094-2.4375 0.62891-3.5859c-3.3516-2.8438-6.3906-6.0781-9.0156-9.6094-2.707 3.8672-4.1523 8.4492-4.1523 13.195s1.4453 9.3281 4.1523 13.195c2.625-3.5312 5.6641-6.7656 9.0156-9.6094z"/>
<text x="0.0" y="117.5" font-size="5.0" font-weight="bold" font-family="Arbeit Regular, Helvetica, Arial-Unicode, Arial, Sans-serif" fill="#000000">Created by Maan Icons</text><text x="0.0" y="122.5" font-size="5.0" font-weight="bold" font-family="Arbeit Regular, Helvetica, Arial-Unicode, Arial, Sans-serif" fill="#000000">from Noun Project</text></svg>