<svg xmlns="http://www.w3.org/2000/svg" viewBox="0 0 60 75" x="0px" y="0px">
<path d="M47.4,17.8a1.025,1.025,0,0,0,1.4-.2,1,1,0,0,0,.19-.743A.99.99,0,0,0,48.6,16.2l-7.2-5.4A4.031,4.031,0,0,0,39,10H34v2h5a1.985,1.985,0,0,1,1.2.4Z"/>
<rect x="37" y="14.001" width="2" height="9.999"/>
<rect x="18" y="37" width="24" height="4" rx="1"/>
<rect x="18" y="49" width="24" height="4" rx="1"/>
<polygon points="46 55 41 55 19 55 14 55 14 57 46 57 46 55"/>
<path d="M12,54H8a2,2,0,0,0-2,2v2h6Z"/>
<rect x="18" y="31" width="24" height="4" rx="1"/>
<rect x="36" y="26" width="4" height="3"/>
<rect x="29" y="2" width="2" height="5"/>
<path d="M54,56a2,2,0,0,0-2-2H48v4h6Z"/>
<rect x="28" y="9" width="4.001" height="4"/>
<rect x="18" y="43" width="24" height="4" rx="1"/>
<path d="M26,10H21a4.025,4.025,0,0,0-2.4.8l-7.2,5.4a1,1,0,0,0-.2,1.4,1.02,1.02,0,0,0,1.4.2l7.2-5.4A1.985,1.985,0,0,1,21,12h5Z"/>
<rect x="21" y="2" width="2" height="6"/>
<rect x="20" y="26" width="4" height="3"/>
<rect x="21" y="14" width="2" height="10"/>
<rect x="37" y="2" width="2" height="6"/>
</svg>