<svg xmlns="http://www.w3.org/2000/svg" version="1.1" viewBox="-5.0 -10.0 110.0 135.0">
 <g>
  <path d="m83.332 84.723c-0.76562 0-1.3906-0.625-1.3906-1.3906l0.003906-60.484c0-1.4453-1.168-2.6094-2.6094-2.6094h-11.945c-0.76562 0-1.3906-0.625-1.3906-1.3906s0.625-1.3906 1.3906-1.3906h11.945c2.9727 0 5.3906 2.418 5.3906 5.3906l-0.003906 60.484c0 0.76562-0.625 1.3906-1.3906 1.3906z"/>
  <path d="m16.668 84.723c-0.76562 0-1.3906-0.625-1.3906-1.3906v-60.484c0-2.9727 2.418-5.3906 5.3906-5.3906h11.945c0.76562 0 1.3906 0.625 1.3906 1.3906s-0.625 1.3906-1.3906 1.3906l-11.945-0.003906c-1.4453 0-2.6094 1.168-2.6094 2.6094l-0.003906 60.488c0 0.76562-0.625 1.3906-1.3906 1.3906z"/>
  <path d="m13.555 48.555h3.1094v36.168h-8.6914v-30.598c0-3.082 2.5-5.582 5.582-5.582z"/>
  <path d="m83.332 48.555h3.1094c3.082 0 5.582 2.5 5.582 5.582v30.598h-8.6953v-36.168z"/>
  <path d="m22.82 49.945h-6.1523c-0.76562 0-1.3906-0.625-1.3906-1.3906v-17.391c0-0.76562 0.625-1.3906 1.3906-1.3906h6.1523c5.3594 0 9.7227 4.3594 9.7227 9.7227v0.72266c0 5.3594-4.3594 9.7227-9.7227 9.7227zm-4.7656-2.7773h4.7656c3.832 0 6.9453-3.1094 6.9453-6.9453v-0.72266c0-3.832-3.1094-6.9453-6.9453-6.9453h-4.7656z"/>
  <path d="m83.332 49.945h-6.1523c-5.3594 0-9.7227-4.3594-9.7227-9.7227v-0.72266c0-5.3594 4.3594-9.7227 9.7227-9.7227h6.1523c0.76562 0 1.3906 0.625 1.3906 1.3906v17.391c0 0.76562-0.625 1.3906-1.3906 1.3906zm-6.1523-17.391c-3.832 0-6.9453 3.1094-6.9453 6.9453v0.72266c0 3.832 3.1094 6.9453 6.9453 6.9453h4.7656v-14.609h-4.7656z"/>
  <path d="m32.641 16.418h34.723c1.1523 0 2.082 1.1523 2.082 2.082v0.69531c0 1.1523-0.93359 2.082-2.082 2.082h-34.723c-1.1523 0-2.082-1.1523-2.082-2.082v-0.69531c0-1.1523 0.93359-2.082 2.082-2.082z"/>
  <path d="m31.152 57.18c-0.76562 0-1.3906-0.625-1.3906-1.3906v-15.945c0-0.76562 0.625-1.3906 1.3906-1.3906s1.3906 0.625 1.3906 1.3906v15.945c0 0.76563-0.625 1.3906-1.3906 1.3906z"/>
  <path d="m36.957 65.875h-11.598c-0.76562 0-1.3906-0.625-1.3906-1.3906v-3.1406c0-3.832 3.1094-6.9453 6.9453-6.9453h0.48438c3.832 0 6.9453 3.1094 6.9453 6.9453v3.1406c0 0.76562-0.625 1.3906-1.3906 1.3906zm-10.207-2.7773h8.8203v-1.75c0-2.293-1.875-4.168-4.168-4.168h-0.48438c-2.293 0-4.168 1.875-4.168 4.168z"/>
  <path d="m68.848 57.18c-0.76562 0-1.3906-0.625-1.3906-1.3906v-15.945c0-0.76562 0.625-1.3906 1.3906-1.3906s1.3906 0.625 1.3906 1.3906v15.945c0 0.76563-0.625 1.3906-1.3906 1.3906z"/>
  <path d="m74.641 65.875h-11.598c-0.76562 0-1.3906-0.625-1.3906-1.3906v-3.1406c0-3.832 3.1094-6.9453 6.9453-6.9453h0.48438c3.832 0 6.9453 3.1094 6.9453 6.9453v3.1406c0 0.76562-0.625 1.3906-1.3906 1.3906zm-10.207-2.7773h8.8203v-1.75c0-2.293-1.875-4.168-4.168-4.168h-0.48438c-2.293 0-4.168 1.875-4.168 4.168z"/>
 </g>
<text x="0.0" y="117.5" font-size="5.0" font-weight="bold" font-family="Arbeit Regular, Helvetica, Arial-Unicode, Arial, Sans-serif" fill="#000000">Created by Farrih Icon</text><text x="0.0" y="122.5" font-size="5.0" font-weight="bold" font-family="Arbeit Regular, Helvetica, Arial-Unicode, Arial, Sans-serif" fill="#000000">from Noun Project</text></svg>