<svg xmlns="http://www.w3.org/2000/svg" version="1.1" viewBox="-5.0 -10.0 110.0 135.0">
 <path d="m27.211 9.0391c2.4531 0 4.4531 2 4.4531 4.4531v21.969c0 2.4531-2 4.4531-4.4531 4.4531-2.4531 0-4.4531-2-4.4531-4.4531v-21.969c0-2.4531 2-4.4531 4.4531-4.4531zm-12.094 15.438c0 1.9414 1.5859 3.5234 3.5234 3.5234h1.1445v-7.0508h-1.1445c-1.9414 0-3.5234 1.5859-3.5234 3.5234zm23.969-21.977c-2.4531 0-4.4531 2-4.4531 4.4531v35.047c0 2.4531 2 4.4531 4.4531 4.4531 2.4531 0 4.4531-2 4.4531-4.4531v-35.047c0-2.4531-2-4.4531-4.4531-4.4531zm46.32 6.5391c-2.4531 0-4.4531 2-4.4531 4.4531v21.969c0 2.4531 2 4.4531 4.4531 4.4531s4.4531-2 4.4531-4.4531v-21.969c0-2.4531-2-4.4531-4.4531-4.4531zm-11.875-6.5391c2.4531 0 4.4531 2 4.4531 4.4531v35.047c0 2.4531-2 4.4531-4.4531 4.4531s-4.4531-2-4.4531-4.4531v-35.047c0-2.4531 2-4.4531 4.4531-4.4531zm-0.74219 57.586c-2.4531 0-4.4531 2-4.4531 4.4531v21.969c0 2.4531 2 4.4531 4.4531 4.4531 2.4531 0 4.4531-2 4.4531-4.4531v-21.969c0-2.4531-2-4.4531-4.4531-4.4531zm12.094 15.438c0 1.9414-1.5859 3.5234-3.5234 3.5234h-1.1445v-7.0508h1.1445c1.9414 0 3.5234 1.5859 3.5234 3.5234zm-70.289-15.438c2.4531 0 4.4531 2 4.4531 4.4531v21.969c0 2.4531-2 4.4531-4.4531 4.4531s-4.4531-2-4.4531-4.4531v-21.969c0-2.4531 2-4.4531 4.4531-4.4531zm11.875-6.5391c-2.4531 0-4.4531 2-4.4531 4.4531v35.047c0 2.4531 2 4.4531 4.4531 4.4531s4.4531-2 4.4531-4.4531v-35.047c0-2.4531-2-4.4531-4.4531-4.4531zm34.449 0c2.4531 0 4.4531 2 4.4531 4.4531v35.047c0 2.4531-2 4.4531-4.4531 4.4531s-4.4531-2-4.4531-4.4531v-35.047c0-2.4531 2-4.4531 4.4531-4.4531zm-7.4219 18.348v7.2617h-19.602v-7.2617zm-50.992 3.6289c0 1.9414 1.5859 3.5234 3.5234 3.5234h1.1445v-7.0508h-1.1445c-1.9414 0-3.5234 1.5859-3.5234 3.5234zm94.996-51.047c0 1.9414-1.5859 3.5234-3.5234 3.5234h-1.1445v-7.0508h1.1445c1.9414 0 3.5234 1.5859 3.5234 3.5234zm-31.391-3.6289v7.2578h-19.605v-7.2578z" fill-rule="evenodd"/>
<text x="0.0" y="117.5" font-size="5.0" font-weight="bold" font-family="Arbeit Regular, Helvetica, Arial-Unicode, Arial, Sans-serif" fill="#000000">Created by Rusma Ratri Handini</text><text x="0.0" y="122.5" font-size="5.0" font-weight="bold" font-family="Arbeit Regular, Helvetica, Arial-Unicode, Arial, Sans-serif" fill="#000000">from Noun Project</text></svg>