<svg xmlns="http://www.w3.org/2000/svg" viewBox="0 0 60 75" x="0px" y="0px">
<path d="M42,26H34a5.01,5.01,0,0,1-3.532-1.458A5.3,5.3,0,0,1,30,24a5.127,5.127,0,0,1-.459.533A5.018,5.018,0,0,1,26,26H18a4.939,4.939,0,0,1-2.3-.588,64.532,64.532,0,0,1-1.473,8.9c.408.575.841,1.146,1.28,1.667A6.521,6.521,0,0,1,17,40.17V51.7a5.761,5.761,0,0,1-.668,2.713,11.693,11.693,0,0,0-1.253,3.612L44.92,58a11.779,11.779,0,0,0-1.254-3.593A5.741,5.741,0,0,1,43,51.7V40.17a6.521,6.521,0,0,1,1.493-4.192c.44-.522.873-1.093,1.281-1.666a64.6,64.6,0,0,1-1.472-8.9A4.939,4.939,0,0,1,42,26ZM31,52a1,1,0,0,1-2,0V51a1,1,0,0,1,2,0Zm8.9-5.553A5.316,5.316,0,0,1,35,49H34a5,5,0,0,1-4-2,5,5,0,0,1-4,2H25a5.316,5.316,0,0,1-4.895-2.553,1,1,0,1,1,1.79-.894A3.4,3.4,0,0,0,25,47h1a3,3,0,0,0,3-3,1,1,0,0,1,2,0,3,3,0,0,0,3,3h1a3.392,3.392,0,0,0,3.112-1.46,1.006,1.006,0,0,1,1.345-.42A.993.993,0,0,1,39.9,46.447Zm1-7A5.316,5.316,0,0,1,36,42H34a5,5,0,0,1-4-2,5,5,0,0,1-4,2H24a5.316,5.316,0,0,1-4.895-2.553,1,1,0,1,1,1.79-.894A3.4,3.4,0,0,0,24,40h2a3,3,0,0,0,3-3,1,1,0,0,1,2,0,3,3,0,0,0,3,3h2a3.392,3.392,0,0,0,3.112-1.46,1,1,0,0,1,1.345-.42A.993.993,0,0,1,40.9,39.447Zm2-7A5.316,5.316,0,0,1,38,35H34a5,5,0,0,1-4-2,5,5,0,0,1-4,2H22a5.316,5.316,0,0,1-4.895-2.553,1,1,0,0,1,1.79-.894A3.4,3.4,0,0,0,22,33h4a3,3,0,0,0,3-3,1,1,0,0,1,2,0,3,3,0,0,0,3,3h4a3.392,3.392,0,0,0,3.112-1.46,1,1,0,0,1,1.345-.42A.993.993,0,0,1,42.9,32.447Z"/>
<path d="M54.541,21.179c-.267,1.833-.554,3-.571,3.065A1,1,0,0,1,53,25a1.033,1.033,0,0,1-.245-.03,1,1,0,0,1-.726-1.214,37.32,37.32,0,0,0,.8-5.184h0C52.945,17.315,53,16.147,53,15c0-7.373-4.133-10-8-10a12.112,12.112,0,0,0-1.645.111,10.77,10.77,0,0,0-2.718.847A10.682,10.682,0,0,1,36,7a1,1,0,0,1,0-2,8.747,8.747,0,0,0,3.863-.887c.351-.147.73-.3,1.136-.446A13.225,13.225,0,0,0,35,2H25a13.347,13.347,0,0,0-6,1.668c.405.146.783.3,1.134.445A8.747,8.747,0,0,0,24,5a1,1,0,0,1,0,2,10.682,10.682,0,0,1-4.637-1.042,10.77,10.77,0,0,0-2.718-.847A12.112,12.112,0,0,0,15,5C11.133,5,7,7.627,7,15c0,1.147.055,2.315.166,3.571h0a37.32,37.32,0,0,0,.8,5.184,1,1,0,0,1-.726,1.214A1.033,1.033,0,0,1,7,25a1,1,0,0,1-.969-.756c-.017-.066-.3-1.232-.571-3.065-1.722,2.815-3.54,8.562-1.683,19.656a1,1,0,0,1-.128.678C3.636,41.535,2,44.434,2,51a53.2,53.2,0,0,0,.421,7.017L6.41,58a35.171,35.171,0,0,0,3.6-11.142,47.337,47.337,0,0,0,.43-6.883.994.994,0,0,1,.074-.381,39.656,39.656,0,0,0,1.666-5.3v0a63.289,63.289,0,0,0,1.66-10.519A4.967,4.967,0,0,1,13,21V18a1,1,0,0,1,2,0v3a3,3,0,0,0,3,3h8a2.994,2.994,0,0,0,3-3,1,1,0,0,1,2,0,2.994,2.994,0,0,0,3,3h8a3,3,0,0,0,3-3V18a1,1,0,0,1,2,0v3a4.967,4.967,0,0,1-.841,2.768,63.4,63.4,0,0,0,1.655,10.507l.006.015a39.656,39.656,0,0,0,1.666,5.3.994.994,0,0,1,.074.381,47.337,47.337,0,0,0,.43,6.883,35.272,35.272,0,0,0,3.6,11.149L57.58,58A52.928,52.928,0,0,0,58,51c0-6.566-1.636-9.465-1.652-9.493a1.018,1.018,0,0,1-.124-.672C58.081,29.741,56.263,23.994,54.541,21.179Z"/>
</svg>