<svg xmlns="http://www.w3.org/2000/svg" version="1.1" viewBox="-5.0 -10.0 110.0 135.0">
 <path d="m77.535 38.262c-0.61328-1.5039-1.2305-3.0078-1.9414-4.4648-1.8945-4.0391-4.2031-7.875-6.8906-11.438-2.0391-2.7188-4.3672-5.207-6.9453-7.418-3.75-3.1953-7.9023-5.8867-12.352-8.0039-0.015625-1.2344-0.007812-2.4688-0.007812-3.7031-0.007813-0.29688-0.13281-0.58203-0.34766-0.78516-0.21484-0.20312-0.5-0.3125-0.79688-0.30469-7.2617-0.003906-14.523 0-21.781 0.003907h-0.003906c-0.44141 0.015624-0.83203 0.27734-1.0117 0.67969-1.7109 2.6797-2.9922 5.6094-3.793 8.6836-0.55859 2.5117-0.57031 5.1133-0.027343 7.6289 0.70703 3.0898 2.4688 5.8359 4.9805 7.7656 2.043 1.4688 4.5469 2.1562 7.0508 1.9336 1.5352-0.15625 3.0039-0.70703 4.2656-1.5977 0.83594-0.67188 1.5977-1.4336 2.2656-2.2656-0.73438-0.64062-1.4336-1.3242-2.082-2.0508-1.2461-1.4961-2.2891-3.1523-3.1055-4.9219-0.78125-1.8008-1.2969-3.7109-1.5234-5.6641-0.097656-1-0.007812-2.0078-0.089843-3.0078-0.003907-0.66797-0.11719-1.4766 0.4375-1.9727l-0.003907 0.003906c0.27344-0.26172 0.64453-0.38672 1.0195-0.34375 0.375 0.039063 0.71094 0.24609 0.91797 0.5625 0.38281 0.50781 0.21875 1.168 0.25391 1.7578-0.015626 1.4023 0.11328 2.8086 0.37891 4.1875 0.82031 3.6953 2.7852 7.0352 5.6172 9.5469 0.46484 0.44141 1.1406 0.77734 1.2695 1.4648 0.125 0.60156-0.32812 1.0859-0.71094 1.4844v-0.003907c-0.73047 0.98047-1.5469 1.8867-2.4414 2.7227-1.1523 1.0117-2.5156 1.7578-3.9883 2.1875 1.168 1.4375 2.4375 2.7891 3.793 4.0508 1.5586 1.3867 3.2227 2.6523 4.9766 3.7773 1.9453 1.2539 4.0312 2.2812 6.2109 3.0547 2.6719 0.98828 5.4922 1.5156 8.3359 1.5664 0.51562 0.72266 1.1328 1.3711 1.6523 2.0898l0.003906-0.003906c-1.7578-0.050782-3.5117 0.16406-5.207 0.63281-4.4102 1.4414-7.9531 4.7656-9.6758 9.0742-0.66406 1.6641-1.0469 3.4297-1.1289 5.2227-0.042969 1.4922 0.125 2.9844 0.49609 4.4297-2.3633 5.1445-4.6094 10.344-6.9961 15.477-1.1758 2.4844-2.207 5.043-3.582 7.4297v-0.003907c-0.97656 1.5195-1.5273 3.2734-1.5898 5.0781-0.054688 1.2969 0.35156 2.5703 1.1445 3.5977 0.64062 0.77344 1.543 1.293 2.5352 1.457 1.957-0.015625 3.918-0.007813 5.875-0.003906 1.1719-0.20703 2.1602-1.0078 3.3633-1.1055 1.7656-0.29297 3.3906 0.59375 5.0586 0.99219 0.57031 0.11719 1.1562 0.15234 1.7383 0.11328 4.1445 0 8.2891-0.007813 12.434 0.003906h-0.003907c1.3828 0.042969 2.5859-0.94922 2.8047-2.3125 0.054687-0.62891-0.14844-1.25-0.56641-1.7188-0.42187-0.46875-1.0117-0.74609-1.6406-0.76172-1.1562-0.0625-2.3164-0.027344-3.4766-0.039062-0.37109-0.042969-0.72656-0.16797-1.0469-0.35938-1.2734-0.59766-2.4609-1.3594-3.6719-2.0742-2.6641-1.6328-5.3555-3.2227-7.9414-4.9727v-0.003906c-0.097657-0.042969-0.16406-0.13281-0.18359-0.23438-0.14453-0.56641-0.26953-1.1367-0.46875-1.6875 1.1406-1.4766 2.1328-3.0586 3.2266-4.5703 1.3594-1.9727 2.75-3.9258 4.1719-5.8516 2.7109-3.8203 5.543-7.5508 8.2852-11.348 2.1953-2.8867 4.0664-5.9961 6.0469-9.0273v-0.003907c1.9297-1.3906 3.7695-2.9023 5.5156-4.5195 1.1719-1.2305 1.9023-2.8164 2.0898-4.5078 0.066407-1.9375-0.33984-3.8633-1.1914-5.6055zm-17.977-2.707c-0.27734-0.22656-0.48047-0.5625-0.80469-0.72656v0.003906c-3.1875 0.78906-6.5547 0.48047-9.543-0.88281-1.7383-0.75391-3.3672-1.7305-4.8516-2.9062-0.3125-0.27344-0.47656-0.67969-0.44141-1.0977 0.03125-0.41406 0.25781-0.78906 0.60938-1.0117 0.5-0.33594 1.1602-0.29688 1.6172 0.089844 1.6914 1.3477 3.6055 2.3828 5.6602 3.0586 1.8008 0.60547 3.7383 0.67969 5.582 0.22266-0.18359-1.1797-0.48828-2.3359-0.76172-3.4961-0.48438-1.6289-1.0898-3.2148-1.8203-4.75-0.99219-1.9883-2.2305-3.8398-3.6914-5.5117-1.4102-1.5508-2.9609-2.9648-4.6367-4.2227-1.7344-1.2656-3.5781-2.3711-5.5078-3.3047-0.36328-0.14453-0.65625-0.41406-0.83203-0.76172-0.16016-0.41016-0.11719-0.86719 0.11719-1.2422 0.23047-0.37109 0.625-0.61328 1.0586-0.65234 0.49609 0.082031 0.97266 0.25781 1.4062 0.51562 2.5625 1.2656 4.9609 2.8438 7.1406 4.6914 5.4922 4.5625 9.0625 11.027 10 18.105 1.4414 2.0781 3.5312 3.6133 5.9414 4.3672 0.51172 0.21875 1.1641 0.12891 1.5586 0.57812 0.48438 0.49219 0.5 1.2773 0.035156 1.7891-0.42188 0.39844-1.0156 0.55469-1.5781 0.41406-2.3359-0.52344-4.4922-1.6484-6.2578-3.2695zm8.8086 13.277c-0.50391 0.35547-1.1484 0.21484-1.7188 0.27344v0.003906c-2.2539 0.22656-4.3672 1.1992-6.0117 2.7578-1.4141 1.3477-2.4336 3.0547-2.9531 4.9375-0.74609 2.9297-1.0547 5.9531-0.91406 8.9766 0.066407 0.74609-0.48438 1.4062-1.2305 1.4805-0.38672-0.003907-0.75-0.16406-1.0156-0.44141-0.26563-0.28125-0.41016-0.65234-0.39453-1.0391 0.019532-1.3984-0.023437-2.7969 0.046875-4.1914 0.1875-2.0977 0.58594-4.168 1.1914-6.1836 0.66797-2.082 1.8438-3.9648 3.4219-5.4766 1.8203-1.75 4.1406-2.8906 6.6367-3.2656-0.25-0.67187-0.40625-1.375-0.46484-2.0938-0.03125-1.1406 0.16797-2.2773 0.58594-3.3438 0.14844-0.51953 0.5-0.95703 0.97266-1.2148 0.35547-0.14062 0.75-0.12109 1.0898 0.050781 0.33984 0.17578 0.58594 0.48438 0.67969 0.85547 0.003907 0.56641-0.12891 1.1289-0.38281 1.6367-0.37109 1.2227-0.35547 2.5312 0.054688 3.7422 0.12109 0.39062 0.48437 0.64062 0.66797 1 0.32031 0.50391 0.20703 1.168-0.25781 1.5352z"/>
</svg>