<svg xmlns="http://www.w3.org/2000/svg" viewBox="0 0 60 75" x="0px" y="0px">
<rect x="6" y="13" width="2" height="8"/>
<rect x="52" y="13" width="2" height="8"/>
<path d="M27,57a1,1,0,0,0,1,1h4a1,1,0,0,0,0-2H28A1,1,0,0,0,27,57Z"/>
<rect x="7" y="56" width="8.001" height="2"/>
<polygon points="10 2 10 13 10 21 10 54 12 54 12 2 10 2"/>
<rect x="56" y="16" width="2" height="2"/>
<rect x="29" y="49" width="2" height="5"/>
<rect x="21" y="43" width="18.001" height="4"/>
<rect x="14" y="16" width="32" height="2"/>
<path d="M14,26h2V23a1,1,0,0,1,1-1h3V20H14Z"/>
<rect x="45" y="56" width="8.001" height="2"/>
<path d="M14,4.512V6.254C16.167,5.282,20.773,4,30,4S43.833,5.282,46,6.254V4.507C44.974,3.883,40.977,2,30,2,19.06,2,15.053,3.87,14,4.512Z"/>
<path d="M46,26V20H40v2h3a1,1,0,0,1,1,1v3Z"/>
<polygon points="48 54 50 54 50 21 50 13 50 2 48 2 48 54"/>
<rect x="2" y="16" width="2" height="2"/>
</svg>