<svg xmlns="http://www.w3.org/2000/svg" xmlns:xlink="http://www.w3.org/1999/xlink" version="1.1" x="0px" y="0px" viewBox="0 0 64 80" style="enable-background:new 0 0 64 64;" xml:space="preserve"><g><path d="M43.006,54.37c0-1.679-1.361-3.04-3.04-3.04H38.47V44.39H25.53v6.941h-1.496c-1.679,0-3.04,1.361-3.04,3.04v2.26h22.012   V54.37z"/><path d="M14.872,32.137h3.027c1.216,0,2.201-0.986,2.201-2.201v-5.342c0-1.216-0.986-2.201-2.201-2.201h-3.027   c-1.216,0-2.201,0.986-2.201,2.201v5.342C12.671,31.152,13.656,32.137,14.872,32.137z"/><path d="M45.46,20.39h4.22c0-5.328,0-3.377,0-5.04c0-1.83-1.48-3.3-3.3-3.3c-3.066,0-4.677,0-7.91,0V9.37c0-1.105-0.895-2-2-2   h-8.94c-1.105,0-2,0.895-2,2v2.68c-3.154,0-4.922,0-7.91,0c-1.82,0-3.3,1.47-3.3,3.3c0,1.164,0-1.793,0,5.04h4.22v-4.4h6.99v20.89   h12.94V15.99h6.99V20.39z"/><path d="M46.101,32.137h3.027c1.216,0,2.201-0.986,2.201-2.201v-5.342c0-1.216-0.985-2.201-2.201-2.201h-3.027   c-1.216,0-2.201,0.986-2.201,2.201v5.342C43.9,31.152,44.886,32.137,46.101,32.137z"/><rect x="22.267" y="38.878" width="19.467" height="3.508"/></g><text x="0" y="79" fill="#000000" font-size="5px" font-weight="bold" font-family="'Helvetica Neue', Helvetica, Arial-Unicode, Arial, Sans-serif">Created by Andre Buand</text><text x="0" y="84" fill="#000000" font-size="5px" font-weight="bold" font-family="'Helvetica Neue', Helvetica, Arial-Unicode, Arial, Sans-serif">from the Noun Project</text></svg>