<svg xmlns="http://www.w3.org/2000/svg" version="1.1" viewBox="-5.0 -10.0 110.0 135.0">
 <path d="m46.535 1.8359c0.89844-0.32422 1.8164-0.57813 2.7539-0.75781 0.66406-0.019531 1.3086 0.21875 1.8047 0.66016 0.27734 0.31641 0.50781 0.67188 0.67969 1.0586 1.0625 2.2852 2.1172 4.5742 3.1836 6.8555 0.22656 0.52344 0.21875 1.1172-0.023437 1.6328-0.23828 0.51562-0.6875 0.90625-1.2344 1.0664-0.82812 0.22656-1.7109 0.011719-2.3438-0.56641-0.65625-0.72656-1.1328-1.5898-1.4023-2.5312-0.22656-0.57031-0.72266-1.207-1.4023-1.1484-0.42969 0.023437-0.82422 0.25391-1.0547 0.61719-0.23047 0.36719-0.26562 0.82031-0.097656 1.2188 0.36328 0.86719 0.73437 1.7383 1.1211 2.5977 0.15234 0.28906 0.25391 0.64844 0.57422 0.80078v0.003906c0.78516 0.36719 1.543 0.79297 2.2656 1.2734 0.70312 0.58203 0.9375 1.5625 0.57031 2.3984-0.37109 0.83594-1.25 1.3242-2.1523 1.1953-0.61719-0.21094-1.2148-0.48828-1.7734-0.82813-0.86719-0.49219-1.75-0.96484-2.6211-1.4531-0.40625-0.26172-0.87891-0.40625-1.3633-0.41016-1.4297 0.23047-2.8906 0.21094-4.3164-0.050781-0.66797-0.21484-1.293-0.55078-1.8398-0.99609-0.38672-0.39453-0.95703-0.54688-1.4883-0.39844-0.375 0.17578-0.67188 0.48438-0.82812 0.86719-1.5781 3.0391-2.9414 6.1875-4.0742 9.4219-0.85938 2.4258-1.543 4.9141-2.043 7.4414-0.53516 2.7266-0.83594 5.5078-1.6406 8.1758-0.66406 2.1758-1.9336 4.1172-3.6562 5.5977-0.45703 0.44141-1.0352 0.73047-1.4922 1.1641v0.003906c-0.22656 0.22656-0.35547 0.53516-0.35547 0.85938 0 0.32031 0.12891 0.62891 0.35938 0.85547 0.47656 0.46094 1.207 0.53125 1.7617 0.16797 1.5625-0.92188 2.8984-2.1836 3.9062-3.6953 0.16797-0.22266 0.25781-0.52734 0.52734-0.65234 1.7344-0.88281 3.6445-1.3789 5.5898-1.4492 2.6992-0.085937 5.3516 0.71094 7.5508 2.2734 1.5586 1.1367 2.8945 2.5469 3.9531 4.1602 4.0703-1.625 8.5508-1.9219 12.797-0.84766 1.9805 0.54688 3.875 1.3633 5.6328 2.418 1.082 0.60547 2.0703 1.3633 3.0859 2.0703 0-0.63281 0.60938-1.082 0.51953-1.7266v-5.4609c0.89062-0.32422 1.8125-0.57031 2.6719-0.97656 0.4375-0.19141 0.83594-0.46094 1.2695-0.66016v-0.003906c-0.10156 1.2109-0.30859 2.4062-0.625 3.5781-0.49219 1.7305-1.2617 3.3711-2.2734 4.8555-0.3125 0.38672-0.60547 0.79297-0.87109 1.2109 0.53125 0.4375 1.0391 0.91016 1.5156 1.4062 0.19141 0.22656 0.41016 0.43359 0.64453 0.61328 1.8086-0.58594 3.7305-0.71094 5.5977-0.36719 2.5781 0.63672 4.8398 2.1758 6.3828 4.3359 2.2109 3.2539 3.1758 7.1992 2.7188 11.105-0.14062 1.4492-0.44922 2.875-0.91797 4.2539-0.16797 0.46094-0.082031 0.97656 0.22266 1.3594 0.47266 0.52344 1.2656 0.59766 1.8242 0.16797 0.31641-0.33594 0.53125-0.75781 0.60938-1.2109 0.5625-1.7188 0.91406-3.4961 1.043-5.2969 0.16797-2.3984-0.12109-4.8086-0.85156-7.1016-1.0547-3.5859-3.3633-6.668-6.5078-8.6875-0.96484-0.57422-1.9961-1.0195-3.0742-1.3242-1.7578-0.47656-3.5977-0.55078-5.3906-0.22656 1.9258-3.2109 2.8672-6.9141 2.707-10.656-0.035156-0.64062 0.13672-1.4062-0.36719-1.9102h-0.003906c-0.36719-0.44922-1.0117-0.54688-1.5-0.23047-0.50391 0.26172-0.64062 0.85547-1.0117 1.2383-1.4297 0.84375-2.9609 1.5039-4.5547 1.9688-1.6055 0.44531-3.2656 0.67578-4.9336 0.6875-0.64844-0.03125-1.2734-0.27344-1.7773-0.6875-0.90234-0.68359-1.4062-1.7734-1.3398-2.9023-0.007812-2.5078-0.007812-5.0156-0.007812-7.5195-0.87109-0.31641-1.7188-0.69531-2.5859-1.0234-0.48438-0.15625-0.92188-0.43359-1.2695-0.80859-0.34375-0.36719-0.41016-0.91797-0.16016-1.3594 1.2773-2.0039 2.5391-4.0195 3.8008-6.0312l0.003906 0.003906c0.089844-0.13672 0.13672-0.29688 0.12891-0.46094-0.28906-1.8398-0.22266-3.7148 0.19141-5.5273 0.26562-1.3281 0.75-2.6016 1.4297-3.7734 1.0586-1.9375 2.4961-3.6406 4.2227-5.0156 4.0391-3.0859 9.2266-4.25 14.195-3.1836 2.3984 0.51953 4.6562 1.5312 6.6406 2.9727 4.293 3.2031 6.875 8.2031 7 13.559-0.019531 4.5625-1.7188 8.9609-4.7695 12.355-0.019532 1.7305-0.007813 3.4648 0.003906 5.1992v-0.003906c0.035156 2.293 0.73047 4.5273 2 6.4375 1.0547 1.6992 2.5391 3.0938 4.3008 4.0391 0.41797 0.23828 0.84766 0.46094 1.2539 0.71875 0.17578 0.097656 0.29297 0.27734 0.31641 0.47656 0.25391 1.8672 0.40234 3.75 0.45312 5.6328 0.17188 3.6953 0.019531 7.3984-0.46094 11.066-0.80078 6.2227-2.582 12.277-5.2773 17.941-1.9648 4.0195-4.332 7.8281-7.0625 11.375-0.41016 0.56641-0.90234 1.0664-1.4648 1.4883-0.25 0.17188-0.57031 0.082032-0.84766 0.10156-10.68-0.011719-21.359 0.011719-32.039-0.007813-0.12891 0.007813-0.25-0.042968-0.33984-0.13672-0.085937-0.09375-0.125-0.21875-0.10938-0.34375 0.011719-1.7539-0.03125-3.5078 0.011719-5.2656 0.10547-1.0742 0.40625-2.1172 0.89062-3.082-1.0352-1.5312-1.9414-3.1484-2.707-4.8281-1.5859-3.3828-2.3828-7.082-2.332-10.816l0.19531 0.011719v-0.003907c0.70703 1.1914 1.5352 2.3047 2.4727 3.3203 1.5234 1.8242 3.3594 3.3594 5.4219 4.5352 0.88672 0.45703 1.7578 0.95703 2.6875 1.332h-0.003906c0.48828 0.19531 1.043 0.082032 1.418-0.28125 0.26562-0.23437 0.42188-0.57031 0.42578-0.92969 0.003906-0.35547-0.14453-0.69531-0.40625-0.9375-0.55859-0.37109-1.1484-0.69531-1.7656-0.96875-2.3086-1.2031-4.3438-2.8711-5.9766-4.8984-1.1914-1.3711-2.1875-2.9023-2.9609-4.543-0.23828-0.52734-0.48438-1.168-1.0781-1.375h-0.003906c-0.38672-0.089844-0.79688 0-1.1172 0.23828-0.31641 0.23828-0.51562 0.60547-0.54297 1.0039-0.097656 0.67969 0.43359 1.2188 0.52734 1.8633-2.1875 0.38672-4.418 0.40625-6.6094 0.0625-1.4102-0.19922-2.8047-0.51172-4.1641-0.92578-4.3555-1.3398-8.4219-3.4922-11.984-6.3359-2.2148-1.6602-4.3633-3.4102-6.4414-5.2344-3.3594-2.9727-6.6836-5.9883-9.9688-9.043l-0.003907 0.003906c-0.93359-0.77734-1.2969-2.043-0.92188-3.1992 0.79297-2.2031 1.7266-4.3555 2.6836-6.4961v0.003906c2.1445-4.8398 4.8008-9.4375 7.9219-13.711 1.0078-1.3555 1.9844-2.7383 3.0742-4.0312 0.83984-0.96484 1.5664-2.0234 2.3906-3 3.4102-4.1523 6.9531-8.1914 10.398-12.316 0.67578-0.875 1.4609-1.6641 2.3359-2.3398 1.5586-0.69922 3.2305-1.0859 4.8477-1.6289 1.3828-0.51562 2.8281-0.83203 4.2188-1.3281 1.625-0.48438 3.2344-1.0195 4.8789-1.4492m3.9922 50.297c-2.1914 0.44141-4.2852 1.2734-6.1797 2.457-0.29688 0.16016-0.51953 0.42969-0.61719 0.75391-0.042969 1.0391 0 2.0781 0.125 3.1094-3.9727-0.48047-7.6172-2.4414-10.207-5.4922-0.24609-0.34766-0.63672-0.56641-1.0586-0.59766-0.46875 0.011719-0.90234 0.25391-1.1523 0.64453-0.25391 0.39453-0.29297 0.89063-0.10547 1.3164 0.61719 0.98047 1.4023 1.8477 2.3164 2.5586 0.95703 0.77734 1.9805 1.4688 3.0586 2.0664 0.38672 0.15625 0.74609 0.37109 1.0664 0.63281-1.9062 0.36328-3.8672 0.34375-5.7695-0.0625-1.543-0.28906-3.0469-0.76562-4.4727-1.418-0.50391-0.22656-0.99219-0.63281-1.5781-0.48047-0.44531 0.15234-0.78516 0.51953-0.90625 0.97656-0.11719 0.45312 0 0.94141 0.31641 1.2891 0.84766 0.58594 1.7812 1.0312 2.7695 1.3203 1.4336 0.53125 2.9258 0.88672 4.4492 1.0625 3.0117 0.42578 6.082 0.0625 8.9141-1.0547 0.14844-0.0625 0.27734-0.16406 0.37109-0.29688 0.81641 0.035156 1.6289 0.14062 2.4492 0.11719 0.25 0.87891 0.55078 1.7422 0.90234 2.5859 0.52344 1.3594 1.1953 2.6562 2.0078 3.8633 0.67578 0.98828 1.4336 1.9141 2.2656 2.7695 1.1484 1.2031 2.4492 2.2461 3.875 3.1055 4.0703 2.4023 8.875 3.2539 13.527 2.3984 0.84375 5.4961 3.7461 10.465 8.1172 13.898 0.33984 0.35547 0.79688 0.57422 1.2852 0.60938 0.375 0.015625 0.74219-0.12891 1.0078-0.39453 0.26562-0.26562 0.41016-0.63281 0.39453-1.0078 0-0.67578-0.64844-1.0391-1.1016-1.4258v0.003906c-3.8203-3.1055-6.332-7.5352-7.0312-12.406 1.7344-0.59375 3.3594-1.4648 4.8125-2.5781 1.4531-1.168 2.7148-2.5547 3.7383-4.1133 0.22656-0.39062 0.24609-0.86719 0.054687-1.2773s-0.57031-0.70312-1.0156-0.78125c-0.52734-0.0625-1.043 0.19531-1.3086 0.66016-1.168 1.7227-2.6797 3.1836-4.4414 4.2891-2.9883 1.7148-6.4453 2.4375-9.8672 2.0625-3.4336-0.35938-6.6602-1.8242-9.1914-4.168-1.8438-1.7109-3.3359-3.7656-4.3906-6.0469-0.92578-2.0938-1.4492-4.3438-1.5469-6.6289 3.3008-1.8125 7.1211-2.4531 10.832-1.8164 2.3477 0.39453 4.6055 1.2188 6.6523 2.4297 0.89062 0.46875 1.7188 1.043 2.4688 1.7148-2.0625-0.46484-4.168-0.71094-6.2812-0.74219-2.0781 0-4.1484 0.3125-6.1367 0.92578-0.42578 0.097656-0.83203 0.24609-1.2188 0.44922-0.31641 0.28516-0.48047 0.70313-0.44531 1.1289s0.26562 0.8125 0.625 1.043c0.44141 0.18359 0.9375 0.16406 1.3633-0.046876 1.0898-0.35937 2.2109-0.61719 3.3477-0.77734 2.8281-0.33594 5.6953-0.1875 8.4766 0.43359 0.98438 0.23438 1.9492 0.54688 2.9102 0.86328 0.32812 0.12891 0.58203 0.39453 0.69141 0.73047 0.18359 0.39844 0.42578 0.76563 0.60938 1.168-1.043-0.27734-2.1055-0.48047-3.1758-0.61328-0.55078-0.09375-1.1172-0.050781-1.6641-0.15625l-0.074219 0.058594 0.003906 0.003906c-0.57812-0.078125-1.1641-0.078125-1.7461-0.007812-1.7969 0.050781-3.582 0.35937-5.293 0.92187-0.52344 0.16016-1.1797 0.20703-1.4922 0.72656-0.21875 0.28906-0.30078 0.66406-0.21875 1.0195 0.082031 0.35547 0.31641 0.65625 0.64453 0.82031 0.58594 0.30859 1.2305-0.003907 1.8164-0.14844h-0.003907c3.8711-1.168 8.0039-1.1328 11.855 0.09375 0.64062 0.18359 1.3906 0.54688 2.0039 0.082031 0.51172-0.37109 0.35547-1.0586 0.32812-1.5938h-0.003906c-0.21875-1.7305-0.86328-3.3789-1.8711-4.7969-1.1953-1.7188-2.6406-3.2422-4.293-4.5273-1.707-1.2539-3.6055-2.2305-5.6211-2.8867-1.7148-0.61719-3.5039-1.0117-5.3203-1.1641-1.8906-0.13672-3.793-0.023437-5.6523 0.34375z"/>
</svg>