<svg xmlns="http://www.w3.org/2000/svg" version="1.1" viewBox="-5.0 -10.0 110.0 135.0">
 <path d="m73.004 2.6914c2-0.38281 4.0273-0.5625 6.0625-0.54297 1.1523 0.074218 2.0312 1.0625 1.9727 2.2148-0.011718 6.0352 0 12.074-0.027343 18.109-0.054688 0.98438-0.82031 1.7812-1.7969 1.875-0.66406-0.42578-1.2773-0.93359-1.9336-1.3711-1.6484-1.2031-3.4805-2.1211-5.1758-3.25-1.6172-0.99219-3.2812-1.9023-4.9102-2.8789-2.4219-1.4102-4.8047-2.8906-7.3203-4.1289v-0.003906c-2.1797-1.1055-4.4453-2.0312-6.7734-2.7695 1.4102-0.99219 2.9023-1.8555 4.4609-2.5859 3.2227-1.4883 6.5742-2.6719 10.016-3.5352 1.7891-0.47266 3.5977-0.85156 5.4258-1.1328z"/>
 <path d="m40.906 13.402c3.625-0.6875 7.3672-0.44531 10.875 0.70703 2.9141 0.93359 5.7109 2.1992 8.3359 3.7773 0.78516 0.42578 1.543 0.89453 2.2773 1.4023-1.1289 0.78516-2.3281 1.4727-3.375 2.3711h-0.003906c-2.4844 2.0859-4.6367 4.5391-6.3789 7.2773-2.5234 3.5664-4.7734 7.3438-7.6289 10.668-2.3477 2.832-4.9844 5.4102-7.8594 7.6992-2.4375 1.8867-4.6406 4.0586-6.5625 6.4688-0.83594 1.1172-1.5703 2.3086-2.1914 3.5547-1.4922-2.3125-2.832-4.7188-4.0078-7.207-1.668-3.6406-2.5234-7.6016-2.5-11.609 0.007812-2.5547 0.34766-5.0938 1.0156-7.5586 0.34375-1.2578 0.77734-2.4922 1.2891-3.6914 0.62891-1.4414 1.4062-2.8164 2.3164-4.0977 3.3672-4.9844 8.5234-8.4805 14.398-9.7617z"/>
 <path d="m63.559 23.805c1.125-0.69531 2.2969-1.3008 3.5156-1.8164 4.1367 2.4258 8.25 4.8906 12.262 7.5156 0.62891 0.48047 1.4102 0.92578 1.6523 1.7305 0.042969 0.73438 0.019531 1.4688 0.015625 2.2031v0.003906c-0.13281 1.0508-1.0508 1.8203-2.1094 1.7656-2.4492 0-4.8984-0.17578-7.3242-0.52734-3.6562-0.58984-7.2422-1.5703-10.691-2.9258-1.3242-0.45312-2.5898-1.0703-3.9297-1.4805 1.7734-2.5547 4.0156-4.75 6.6094-6.4688z"/>
 <path d="m54.359 34.004c6.4141 2.9141 13.25 4.7852 20.25 5.5391 1.375 0.10938 2.7539 0.070312 4.1328 0.074219v-0.003907c0.57812-0.023437 1.1406 0.18359 1.5664 0.57422 0.42578 0.39062 0.67969 0.93359 0.70312 1.5117 0.003906 7.1953 0.042969 14.391 0.027343 21.586 0.003907 0.52344-0.20703 1.0273-0.58203 1.3906-0.375 0.36719-0.88281 0.5625-1.4062 0.54297-0.86328-0.074219-1.7188-0.22656-2.5547-0.45312-2.9414-0.71484-5.7188-1.9805-8.1914-3.7227-2.4844-1.8359-4.7227-3.9805-6.6641-6.3867-2.0977-2.3633-3.9375-4.9414-6.0703-7.2695-1.9453-2.1875-4.0117-4.2617-6.125-6.2812 1.7656-2.2773 3.4062-4.6445 4.9141-7.1016z"/>
 <path d="m47.383 43.688c0.16016-0.24609 0.36719-0.45703 0.61328-0.61719-0.12891 1.9805-0.39453 3.9492-0.41406 5.9375 0.019531 1.8906 0.33984 3.7656 0.94531 5.5586 1.0859 3.0234 1.75 6.1836 1.9688 9.3867 0.24609 3.8203 0.10547 7.6523-0.42578 11.441-0.42187 2.7812-1.0781 5.5195-1.9609 8.1875-0.625 2.0312-1.3945 4.0117-2.3086 5.9297-0.25 0.58984-0.50781 1.1758-0.79297 1.75-0.85156 1.6875-1.8281 3.3125-2.918 4.8555-0.62109 1.0352-1.7227 1.6875-2.9297 1.7344-1.1836 0.019532-2.2891-0.59766-2.8945-1.6172-1.5391-2.332-2.7461-4.8672-3.5898-7.5273-0.69922-1.9414-1.2734-3.9297-1.7188-5.9453-0.84375-3.6172-1.3125-7.3125-1.3984-11.023 0.003906-2.5664 0.29688-5.125 0.875-7.625 0.79297-3.2578 2.3438-6.2852 4.5312-8.8281 1.9727-2.1094 4.125-4.043 6.4375-5.7773 2.1602-1.7617 4.1602-3.7109 5.9805-5.8203z"/>
 <path d="m52.16 50.355c1.4844 1.7344 2.9219 3.5117 4.3867 5.2617 1.8789 2.3438 3.9219 4.5508 6.1094 6.6055 2.4922 2.25 5.3438 4.0703 8.4375 5.375 1.9727 0.88672 4.0547 1.5078 6.1875 1.8477 0.94922 0.0625 1.8789 0.29297 2.7461 0.67578 0.58984 0.34375 0.96875 0.95703 1.0117 1.6367 0.019532 1.0391 0.019532 2.082 0.003907 3.1211-0.046875 1.0703-0.94531 1.9023-2.0156 1.8672-2.5625-0.23047-5.0742-0.82031-7.4688-1.7578-2.6055-0.94531-5.0625-2.2578-7.2891-3.9062-2.0234-1.4414-3.8398-3.1484-5.4102-5.0703-2.0195-2.332-3.6562-4.9648-4.8477-7.8086-1.0273-2.5039-1.6523-5.1523-1.8516-7.8477z"/>
 <path d="m18.984 67.906c0.082031-4.4883 1.168-8.9023 3.1758-12.918 1.0547 2.5508 2.3555 4.9961 3.8828 7.293 0.10156 0.16797 0.29688 0.34375 0.20312 0.56641-1.3516 6.1797-1.3633 12.578-0.03125 18.762 0.75391 3.6016 1.8008 7.1367 3.1367 10.57 0.46484 1.0508 0.87891 2.1289 1.2344 3.2227 0.070312 0.89062-0.39453 1.7383-1.1836 2.1602-0.87891 0.46875-1.9609 0.33203-2.6953-0.33984-0.46875-0.50781-0.86328-1.082-1.1641-1.7031-3.043-5.5195-5.0977-11.531-6.0781-17.758-0.45703-3.2617-0.61719-6.5625-0.48047-9.8555z"/>
</svg>